<?xml version="1.0" standalone="no"?>
<!DOCTYPE svg PUBLIC "-//W3C//DTD SVG 20010904//EN"
 "http://www.w3.org/TR/2001/REC-SVG-20010904/DTD/svg10.dtd">
<svg version="1.0" xmlns="http://www.w3.org/2000/svg"
 width="1080.000000pt" height="1080.000000pt" viewBox="0 0 1080.000000 1080.000000"
 preserveAspectRatio="xMidYMid meet">

<g transform="translate(0.000000,1080.000000) scale(0.100000,-0.100000)"
fill="#000000" stroke="none">
<path d="M1 9308 c1 -821 4 -1482 6 -1469 3 13 10 30 17 37 7 7 16 44 19 83 3
39 13 85 21 103 8 18 18 56 22 83 3 28 14 64 24 80 9 17 20 46 24 65 3 19 15
53 25 75 40 90 60 142 66 172 4 17 13 37 21 44 8 6 14 19 14 28 0 9 11 39 25
66 13 28 25 53 25 57 0 4 11 24 25 44 14 20 25 45 25 55 0 11 3 19 8 19 4 0
25 35 47 77 22 43 46 84 52 91 7 7 16 24 19 38 4 13 15 29 25 35 11 5 19 16
19 24 0 8 11 31 25 51 14 20 25 42 25 48 0 6 9 17 20 24 11 7 20 17 20 23 0
12 25 47 80 112 20 23 55 68 79 100 24 31 47 57 52 57 5 0 9 5 9 10 0 6 21 33
48 59 26 27 85 90 132 141 47 51 90 97 95 101 6 5 30 26 55 49 25 22 47 40 50
40 3 0 6 -12 5 -27 0 -31 22 -43 32 -16 7 21 67 97 104 133 40 38 238 179 296
208 17 10 58 33 90 52 57 34 187 90 209 90 13 0 24 -23 24 -51 0 -10 4 -19 9
-19 13 0 1 -47 -18 -63 -9 -9 -52 -34 -96 -57 -85 -45 -116 -67 -78 -56 25 8
62 -7 45 -18 -6 -3 -13 -2 -17 3 -6 11 -65 -19 -65 -33 0 -5 7 -3 15 4 26 22
26 5 1 -18 -14 -11 -26 -16 -28 -11 -2 6 -12 7 -22 3 -19 -7 -19 -8 0 -14 17
-6 15 -9 -13 -23 -18 -10 -39 -17 -48 -17 -9 0 -13 -4 -10 -10 3 -5 -1 -10 -9
-10 -9 0 -16 -6 -17 -12 0 -7 -26 -25 -57 -40 -31 -15 -77 -45 -102 -67 -46
-41 -60 -49 -60 -31 0 6 5 10 10 10 6 0 9 5 8 11 -3 13 72 75 177 146 39 26
72 50 75 53 3 3 21 16 40 28 19 12 28 22 20 22 -14 0 -56 -24 -70 -39 -3 -4
-18 -13 -35 -21 -16 -8 -49 -27 -71 -42 -23 -16 -45 -28 -48 -28 -12 0 -124
-91 -159 -129 -43 -48 -112 -191 -152 -316 -40 -124 -73 -181 -258 -454 -21
-31 -52 -78 -69 -106 -16 -27 -47 -79 -68 -114 -22 -37 -35 -71 -33 -82 4 -15
2 -18 -13 -12 -14 5 -16 3 -11 -11 4 -10 4 -23 0 -29 -8 -12 -16 -32 -62 -157
-133 -355 -209 -630 -241 -870 -25 -193 -36 -537 -21 -652 9 -69 17 -93 35
-111 17 -17 27 -44 35 -98 17 -105 52 -280 61 -304 4 -11 13 -38 19 -60 6 -22
22 -80 36 -130 14 -49 25 -114 25 -143 0 -50 4 -59 44 -106 24 -28 56 -75 71
-105 l28 -53 43 6 c23 3 66 16 95 29 30 13 76 30 103 37 28 8 67 29 93 52 24
21 52 38 61 38 10 0 28 7 40 16 18 13 42 15 110 12 80 -4 110 -11 152 -37 8
-5 37 -17 63 -26 84 -30 317 -237 453 -401 144 -175 217 -286 294 -449 55
-117 101 -213 195 -410 86 -179 150 -361 190 -540 22 -98 28 -152 32 -296 2
-103 0 -210 -7 -255 -6 -44 -15 -112 -20 -153 -6 -41 -14 -79 -19 -85 -4 -6
-14 -28 -21 -49 -9 -29 -29 -50 -83 -91 -100 -75 -134 -105 -120 -106 6 0 15
5 18 10 3 6 27 19 52 31 26 12 74 49 108 84 l62 63 21 -52 c11 -28 30 -85 42
-126 43 -147 67 -184 211 -330 74 -74 174 -171 222 -215 48 -44 107 -98 130
-120 152 -143 316 -289 388 -345 46 -35 98 -80 115 -100 60 -66 480 -485 508
-505 15 -11 36 -33 47 -50 14 -22 19 -25 19 -12 0 10 -5 27 -10 38 -6 10 -9
19 -6 19 5 0 102 -58 170 -102 135 -87 188 -108 226 -88 16 9 22 7 26 -5 3 -8
14 -15 23 -15 14 -1 14 -2 -1 -11 -10 -5 -18 -14 -18 -19 0 -22 63 -71 136
-105 44 -20 104 -49 134 -64 30 -16 78 -36 107 -45 28 -10 71 -30 95 -46 56
-38 120 -57 243 -70 55 -6 125 -14 155 -18 43 -6 63 -4 90 9 72 35 102 87 125
220 10 52 28 126 41 164 13 39 24 80 24 91 0 12 -18 76 -40 143 -22 67 -40
140 -40 165 0 67 -29 192 -65 281 -17 44 -42 114 -54 155 -34 114 -194 453
-226 480 -8 7 -15 20 -15 30 0 18 40 50 62 50 14 0 91 -115 162 -240 69 -122
146 -243 171 -270 30 -31 55 -90 55 -129 0 -16 -5 -52 -12 -80 -11 -48 -10
-55 17 -114 16 -34 45 -80 66 -102 26 -29 45 -66 68 -136 29 -89 31 -105 31
-237 0 -161 7 -187 64 -242 31 -29 38 -32 46 -20 16 25 11 115 -9 193 -10 39
-22 92 -26 117 -3 25 -15 95 -25 155 -10 61 -29 166 -40 234 -12 69 -30 141
-41 162 -10 21 -21 46 -22 56 -9 45 -21 79 -34 91 -7 7 -13 20 -13 29 0 8 -20
49 -45 90 -25 40 -45 78 -45 82 0 5 -6 11 -14 14 -9 4 -12 15 -9 31 4 21 2 25
-11 20 -12 -5 -16 0 -16 19 0 15 -9 32 -22 41 l-22 16 22 0 c27 0 28 17 3 48
-22 26 -48 29 -53 6 -2 -11 -14 0 -35 32 -17 27 -51 70 -76 95 -24 25 -61 81
-82 123 -37 75 -38 79 -32 156 4 44 12 88 19 99 21 34 114 76 288 131 154 48
256 87 340 128 19 9 66 45 105 79 38 35 73 63 79 63 12 0 126 117 126 130 0 5
7 10 15 10 8 0 15 7 15 15 0 8 11 26 24 41 48 53 54 62 66 98 6 20 17 39 23
43 7 5 17 21 22 38 6 17 23 35 40 44 17 8 41 20 55 27 14 7 39 33 55 59 17 25
70 101 120 168 92 126 200 309 236 400 11 28 24 56 28 62 17 22 80 257 88 325
2 25 10 72 17 105 7 33 14 80 16 105 1 25 3 59 5 75 2 17 6 68 10 115 3 47 8
108 11 135 10 110 4 389 -12 479 -11 70 -89 279 -146 392 -56 113 -81 177
-118 304 -12 41 -46 125 -75 185 -85 176 -110 264 -119 425 -8 155 -67 400
-127 535 -39 89 -54 140 -74 260 -5 28 -4 28 4 5 5 -14 17 -52 27 -85 9 -33
29 -85 44 -115 49 -101 60 -130 86 -238 35 -151 74 -366 74 -413 0 -71 83
-328 108 -337 11 -3 2 53 -24 153 -8 33 -23 132 -34 220 -22 188 -50 331 -85
434 -13 41 -32 104 -41 140 -9 36 -29 89 -44 116 -15 28 -42 98 -59 155 -36
117 -163 507 -211 645 -47 137 -52 154 -46 163 9 14 -20 95 -72 203 -60 124
-94 173 -190 274 -40 42 -72 78 -72 80 0 3 7 5 15 5 8 0 15 -4 15 -10 0 -5 6
-9 13 -7 6 1 11 -4 9 -11 -1 -8 2 -11 7 -8 16 10 54 -10 93 -48 20 -20 40 -36
43 -36 9 0 65 -60 65 -70 0 -5 9 -12 20 -15 11 -3 20 -11 20 -16 0 -5 18 -29
40 -52 22 -23 59 -67 82 -99 24 -32 46 -58 50 -58 5 0 8 -5 8 -11 0 -6 10 -24
23 -39 12 -15 38 -51 57 -79 19 -27 38 -50 43 -51 4 0 7 -5 7 -11 0 -6 11 -24
25 -41 14 -16 25 -35 25 -43 0 -7 7 -15 15 -19 8 -3 22 -23 31 -46 9 -22 20
-40 24 -40 5 0 12 -10 16 -22 4 -13 15 -34 25 -47 11 -13 19 -32 19 -42 0 -10
6 -22 13 -26 7 -4 19 -24 27 -43 7 -19 19 -42 25 -50 18 -22 85 -163 85 -178
0 -6 4 -12 9 -12 5 0 12 -15 16 -32 4 -18 13 -42 19 -53 7 -11 21 -44 31 -74
9 -29 24 -65 31 -80 8 -14 14 -34 14 -44 0 -11 6 -31 14 -45 8 -15 22 -54 31
-87 23 -82 46 -125 67 -125 10 0 18 -6 18 -13 0 -8 7 -28 16 -46 9 -17 19 -53
24 -79 l8 -47 1 40 c1 66 -10 117 -25 111 -9 -3 -14 2 -14 14 0 10 -8 25 -19
32 -17 12 -84 185 -84 218 0 8 -4 20 -9 26 -4 6 -6 19 -2 28 4 11 1 16 -10 16
-10 0 -16 9 -16 25 0 22 -8 48 -31 100 -5 11 -12 31 -14 45 -7 36 -13 88 -8
70 2 -9 14 -20 26 -26 12 -5 21 -15 19 -22 -1 -7 2 -12 7 -12 13 0 76 -62 74
-71 -2 -5 15 -8 37 -7 32 1 44 -4 56 -20 8 -12 24 -22 34 -22 19 0 33 -14 36
-38 4 -21 25 -42 44 -42 20 0 43 -23 33 -33 -3 -4 6 -7 20 -7 19 0 27 -5 27
-18 0 -9 9 -23 20 -30 12 -7 18 -17 15 -22 -3 -6 5 -10 19 -10 18 0 26 -5 26
-18 0 -9 9 -23 20 -30 12 -7 18 -17 15 -22 -3 -6 4 -10 17 -10 27 0 188 -155
188 -180 0 -8 9 -21 20 -28 12 -7 18 -17 15 -22 -3 -6 5 -10 19 -10 18 0 26
-5 26 -18 0 -9 9 -23 20 -30 12 -7 18 -17 15 -22 -3 -6 5 -10 19 -10 18 0 26
-5 26 -18 0 -9 9 -23 20 -30 12 -7 18 -17 15 -22 -3 -6 5 -21 20 -36 14 -14
27 -34 28 -45 2 -11 20 -36 40 -57 20 -21 37 -44 37 -53 0 -8 9 -20 20 -27 12
-7 18 -17 15 -22 -3 -6 6 -22 21 -37 18 -18 27 -37 26 -57 0 -19 6 -35 19 -44
11 -7 17 -18 14 -23 -4 -5 6 -21 21 -36 18 -18 27 -37 26 -57 0 -19 6 -35 19
-44 11 -7 17 -18 14 -23 -4 -5 6 -21 21 -36 18 -18 27 -37 26 -57 0 -19 6 -35
19 -44 11 -7 17 -18 14 -23 -4 -5 5 -20 19 -34 17 -17 26 -37 26 -58 0 -20 7
-36 18 -44 14 -8 19 -25 21 -69 1 -46 6 -63 23 -77 14 -12 21 -29 20 -49 0
-19 6 -37 16 -44 18 -13 19 -15 21 -74 1 -26 6 -40 15 -40 14 0 26 -79 26
-181 0 -33 4 -59 10 -59 6 0 10 -18 10 -40 0 -22 5 -40 10 -40 6 0 10 -33 10
-80 0 -60 3 -80 13 -80 11 0 16 -30 20 -122 15 -264 4 -598 -20 -598 -10 0
-13 -20 -13 -80 0 -47 -4 -80 -10 -80 -5 0 -10 -18 -10 -40 0 -22 -4 -40 -10
-40 -6 0 -10 -26 -10 -59 0 -102 -12 -181 -26 -181 -10 0 -14 -13 -14 -40 0
-22 -4 -40 -10 -40 -5 0 -10 -18 -10 -39 0 -22 -4 -43 -10 -46 -5 -3 -10 -22
-10 -41 0 -27 -4 -34 -20 -34 -16 0 -20 -7 -21 -40 -2 -59 -3 -61 -21 -74 -10
-7 -16 -25 -16 -42 1 -20 -8 -39 -26 -57 -15 -15 -25 -31 -21 -36 3 -5 -3 -16
-13 -23 -15 -10 -20 -27 -21 -74 -1 -56 -4 -64 -41 -103 -31 -32 -40 -50 -40
-76 0 -31 -3 -35 -26 -35 -14 0 -23 -4 -19 -9 3 -5 -3 -16 -14 -23 -13 -9 -19
-25 -19 -44 1 -20 -8 -39 -26 -57 -15 -15 -24 -31 -21 -37 3 -5 -3 -15 -15
-22 -11 -7 -20 -23 -20 -36 0 -13 -12 -33 -28 -47 -15 -13 -34 -36 -42 -51 -8
-15 -25 -38 -38 -51 -13 -13 -20 -27 -17 -33 3 -5 -3 -15 -15 -22 -11 -7 -20
-21 -20 -30 0 -13 -8 -18 -26 -18 -14 0 -22 -4 -19 -10 3 -5 -3 -15 -15 -22
-11 -7 -20 -22 -20 -34 0 -15 -64 -85 -196 -218 -166 -166 -201 -196 -226
-196 -16 0 -27 -4 -23 -10 3 -5 -3 -15 -15 -22 -11 -7 -20 -21 -20 -30 0 -13
-8 -18 -27 -18 -14 0 -23 -3 -20 -7 10 -10 -13 -33 -33 -33 -10 0 -23 -7 -31
-16 -10 -13 -10 -17 2 -26 24 -17 -61 1 -123 27 -45 17 -58 20 -58 9 0 -8 9
-14 20 -14 12 0 31 -9 43 -21 25 -23 127 -74 172 -85 17 -4 35 -13 40 -20 16
-19 174 -66 245 -71 36 -3 76 -11 90 -18 14 -7 57 -16 95 -20 99 -9 127 -20
154 -60 20 -30 23 -43 17 -83 -3 -26 -11 -48 -16 -50 -6 -2 -10 -9 -10 -16 0
-7 -11 -30 -25 -50 -14 -20 -25 -42 -25 -48 0 -12 -57 -105 -77 -126 -7 -7
-13 -18 -13 -23 0 -6 -18 -36 -39 -69 -22 -32 -42 -68 -46 -79 -3 -12 -10 -21
-15 -21 -5 0 -18 -19 -30 -43 -37 -75 -92 -147 -113 -147 -6 0 -26 -18 -46
-39 -33 -36 -152 -101 -185 -101 -7 0 -21 -9 -31 -20 -17 -19 -17 -22 4 -88
11 -37 21 -73 21 -80 0 -7 8 -25 17 -39 14 -21 18 -50 18 -150 0 -79 -4 -126
-11 -131 -6 -4 -14 -19 -17 -33 -4 -14 -17 -42 -31 -61 -13 -20 -41 -68 -62
-106 -37 -70 -37 -71 -21 -110 9 -22 21 -77 26 -121 6 -44 15 -88 21 -98 15
-26 33 -75 35 -95 1 -9 14 -36 27 -61 16 -28 24 -55 21 -70 -3 -14 0 -28 6
-31 7 -4 11 -41 11 -92 l0 -84 1650 0 1650 0 0 4845 0 4846 -52 -5 c-52 -5
-52 -5 -10 4 23 5 47 12 52 15 6 4 10 204 10 551 l0 544 -2994 0 -2995 0 -4
-27 -4 -28 -2 28 -1 27 -2400 0 -2400 0 1 -1492z m4659 1442 c0 -5 -4 -10 -10
-10 -5 0 -10 5 -10 10 0 6 5 10 10 10 6 0 10 -4 10 -10z m10 -82 c0 -33 20
-38 21 -5 1 21 1 21 8 -3 9 -32 2 -82 -11 -74 -5 3 -7 13 -4 21 4 9 0 21 -8
27 -8 6 -18 29 -21 51 -5 30 -4 36 4 25 6 -8 11 -27 11 -42z m30 43 c0 -6 -4
-13 -10 -16 -5 -3 -10 1 -10 9 0 9 5 16 10 16 6 0 10 -4 10 -9z m17 -43 c-3
-8 -6 -5 -6 6 -1 11 2 17 5 13 3 -3 4 -12 1 -19z m163 4 c0 -5 10 -8 23 -8 17
1 22 -4 21 -21 0 -19 5 -23 28 -23 37 0 27 -20 -10 -21 l-27 -1 25 -7 c24 -7
24 -7 -8 -14 -35 -7 -114 7 -167 29 -18 7 -35 10 -39 7 -3 -4 -6 -1 -6 5 0 8
27 13 83 14 l82 2 -74 3 -75 4 30 19 c29 19 114 27 114 12z m-2022 -18 c17 -5
22 -14 22 -40 0 -31 -3 -34 -29 -34 -24 0 -34 -8 -53 -41 -28 -50 -55 -65
-152 -84 -41 -7 -88 -21 -105 -29 -16 -9 -37 -16 -46 -16 -8 0 -23 -4 -33 -9
-57 -29 -109 -48 -307 -111 -16 -5 -49 -12 -72 -16 -40 -6 -43 -5 -43 16 0 12
9 35 20 50 11 16 19 32 18 37 -1 4 1 22 4 39 8 35 70 80 143 104 22 7 54 18
70 25 52 22 168 54 220 61 28 4 55 10 61 15 28 22 232 46 282 33z m6431 -41
c-8 -10 -20 -22 -26 -26 -16 -10 -17 -33 -3 -40 6 -3 5 -4 -2 -3 -7 1 -14 13
-16 27 -2 17 5 29 25 41 35 22 39 22 22 1z m-4269 -44 c0 -5 -7 -9 -15 -9 -9
0 -12 6 -9 15 6 15 24 11 24 -6z m4320 11 c11 -8 7 -9 -15 -4 -37 8 -45 14
-19 14 10 0 26 -5 34 -10z m160 -40 c0 -5 -7 -10 -16 -10 -8 0 -12 5 -9 10 3
6 10 10 16 10 5 0 9 -4 9 -10z m-153 -26 c-3 -3 -12 -4 -19 -1 -8 3 -5 6 6 6
11 1 17 -2 13 -5z m57 -14 c-31 -12 -38 -28 -22 -47 12 -15 11 -15 -9 -4 -13
6 -23 16 -23 22 0 19 25 38 50 38 24 0 24 -1 4 -9z m81 -77 c-11 -3 -26 -10
-33 -16 -11 -9 -11 -13 4 -24 10 -7 13 -13 8 -13 -6 0 -19 6 -29 14 -16 11
-17 15 -4 29 8 9 28 16 44 15 21 0 24 -2 10 -5z m90 -22 c3 -5 2 -12 -3 -15
-5 -3 -9 1 -9 9 0 17 3 19 12 6z m-52 -41 c3 -11 1 -18 -4 -14 -5 3 -9 12 -9
20 0 20 7 17 13 -6z m61 -39 c4 -5 -3 -7 -14 -4 -23 6 -26 13 -6 13 8 0 17 -4
20 -9z m76 -21 c12 -8 9 -10 -12 -10 -15 0 -30 -4 -33 -10 -3 -5 -13 -10 -21
-10 -8 0 -14 5 -14 10 0 6 9 10 19 10 11 0 23 5 26 10 8 12 16 12 35 0z m70
-60 c-8 -5 -23 -10 -34 -10 -12 0 -16 -5 -12 -15 6 -17 4 -18 -18 -9 -9 3 -16
10 -16 14 0 10 47 28 75 29 16 1 17 -1 5 -9z m53 -57 c-18 -9 -33 -23 -33 -32
0 -12 -2 -13 -12 -2 -11 11 -10 14 0 18 7 3 18 11 25 19 7 7 21 13 32 13 15 0
12 -4 -12 -16z m-7843 3 c0 -2 -7 -7 -16 -10 -8 -3 -12 -2 -9 4 6 10 25 14 25
6z m-50 -26 c-8 -5 -19 -10 -25 -10 -5 0 -3 5 5 10 8 5 20 10 25 10 6 0 3 -5
-5 -10z m1150 -26 c0 -2 -9 -4 -21 -4 -11 0 -18 4 -14 10 5 8 35 3 35 -6z
m6950 6 c0 -5 -7 -10 -16 -10 -8 0 -12 5 -9 10 3 6 10 10 16 10 5 0 9 -4 9
-10z m-153 -26 c-3 -3 -12 -4 -19 -1 -8 3 -5 6 6 6 11 1 17 -2 13 -5z m-5883
-16 c7 11 226 9 244 -2 7 -4 22 -4 33 -1 18 6 20 4 14 -16 -7 -22 -7 -23 11
-9 10 8 24 22 30 30 10 12 14 12 29 0 9 -8 34 -13 59 -11 28 1 47 -3 55 -13
16 -19 51 0 44 23 -3 10 -2 12 4 6 15 -19 59 -43 84 -47 14 -2 23 -9 21 -17
-2 -11 0 -12 11 -3 12 10 18 7 31 -13 9 -14 12 -25 6 -25 -5 0 -10 -7 -10 -15
0 -8 -4 -15 -10 -15 -5 0 -10 -5 -10 -10 0 -12 41 9 53 28 12 19 47 15 47 -6
0 -10 5 -23 12 -30 23 -23 17 -39 -11 -34 l-26 5 23 -26 c13 -14 23 -33 22
-43 -4 -38 1 -42 58 -47 72 -6 115 -17 124 -31 12 -17 9 -28 -4 -20 -7 4 -4
-2 7 -13 21 -21 43 -22 103 -4 17 5 32 6 32 2 0 -4 19 -13 43 -20 23 -7 58
-21 77 -30 19 -10 43 -17 53 -16 9 2 15 0 13 -3 -2 -4 1 -11 8 -17 16 -15 46
-18 46 -5 0 6 5 8 10 5 6 -3 10 -14 10 -23 0 -33 15 -45 39 -33 17 9 21 9 21
-3 0 -16 54 -38 74 -30 20 8 93 -41 101 -66 4 -14 12 -19 22 -16 10 4 18 -4
26 -24 6 -16 17 -30 23 -30 7 0 28 -16 48 -35 23 -22 42 -32 52 -28 12 4 15 1
12 -15 -3 -22 43 -72 67 -72 8 0 12 -6 9 -14 -6 -16 31 -40 46 -31 6 3 10 4
10 1 0 -2 3 -11 6 -19 3 -10 -1 -17 -13 -19 -11 -2 0 -9 30 -18 26 -8 47 -17
47 -21 0 -14 40 -16 59 -2 18 12 21 12 21 0 0 -7 11 -20 25 -27 20 -11 27 -11
40 0 12 10 15 10 15 -4 0 -10 5 -14 11 -10 8 4 8 9 0 17 -19 19 -13 39 9 32
23 -7 28 13 8 33 -9 10 -8 16 5 30 17 16 18 16 24 -6 4 -17 11 -22 24 -19 10
3 18 2 17 -2 -2 -19 3 -31 15 -31 27 -1 55 -36 50 -63 -3 -15 -1 -27 5 -27 5
0 9 6 8 13 -2 19 19 20 23 0 2 -10 11 -23 20 -29 10 -8 16 -27 16 -51 1 -24 5
-37 13 -35 7 1 12 -6 12 -17 0 -10 7 -24 15 -31 19 -15 21 -90 3 -90 -7 0 -5
-5 5 -11 12 -7 17 -23 17 -59 0 -28 -4 -50 -8 -50 -5 0 -16 -16 -25 -36 -10
-19 -22 -32 -27 -29 -6 3 -10 1 -10 -4 0 -6 7 -11 15 -11 16 0 55 -78 55 -110
0 -10 5 -22 10 -25 6 -3 10 1 10 10 0 26 23 12 32 -20 4 -16 19 -39 33 -52 14
-13 25 -29 25 -34 0 -6 11 -25 25 -43 46 -57 65 -89 65 -111 0 -8 7 -15 15
-15 8 0 15 -7 15 -15 0 -8 5 -15 10 -15 6 0 10 8 10 17 0 9 2 14 5 11 3 -3 7
-36 10 -74 2 -38 9 -70 15 -72 5 -2 10 -11 10 -20 0 -14 -4 -13 -18 5 -12 15
-47 29 -117 47 -176 46 -267 31 -450 -72 l-30 -17 28 -3 c16 -2 44 4 62 12 18
9 41 16 52 16 15 -1 13 -4 -9 -21 -16 -11 -28 -27 -28 -35 0 -9 -13 -26 -28
-39 -30 -25 -38 -55 -15 -55 8 0 11 5 7 12 -5 8 -2 9 10 5 9 -4 31 0 48 9 16
8 36 13 45 10 8 -3 28 1 46 10 32 17 60 18 240 9 119 -5 133 -11 195 -79 37
-41 50 -71 62 -141 10 -60 3 -105 -16 -105 -11 0 -14 -16 -11 -77 2 -43 5 -82
7 -88 1 -5 2 -16 1 -24 -1 -11 -4 -11 -16 -1 -11 9 -15 10 -15 1 0 -7 -6 -19
-14 -26 -12 -12 -18 -12 -44 1 -25 12 -42 13 -97 4 -39 -6 -79 -7 -98 -2 -38
10 -203 9 -213 -1 -4 -4 -16 -7 -26 -7 -21 0 -77 -41 -146 -107 -25 -24 -49
-40 -55 -36 -5 3 -8 2 -5 -3 7 -11 -17 -35 -27 -26 -4 4 -5 2 -3 -3 2 -6 -10
-26 -25 -45 -23 -27 -31 -31 -38 -19 -8 10 -8 7 -4 -10 5 -16 4 -21 -4 -17 -6
4 -11 2 -11 -3 0 -6 -7 -11 -15 -11 -8 0 -15 5 -15 10 0 6 7 10 15 10 18 0 20
30 3 31 -10 0 -10 2 0 6 6 2 12 16 12 29 0 14 4 22 10 19 6 -3 10 1 10 9 0 8
-6 19 -13 23 -19 12 -38 63 -32 84 5 14 1 19 -14 19 -14 0 -21 6 -21 19 0 19
-25 31 -47 24 -7 -3 -13 -10 -13 -16 0 -6 -6 -18 -13 -26 -8 -9 -26 -47 -41
-86 -15 -38 -35 -76 -44 -83 -8 -6 -11 -12 -5 -12 7 0 6 -17 -4 -52 -11 -35
-12 -57 -6 -67 6 -9 9 -41 7 -71 -4 -71 13 -121 54 -155 18 -15 30 -31 27 -35
-6 -10 24 -50 37 -50 12 0 77 -47 72 -52 -2 -3 2 -11 11 -18 8 -7 15 -19 15
-27 0 -10 6 -13 16 -9 13 5 15 2 11 -14 -3 -11 -2 -20 2 -20 4 0 38 -43 76
-96 39 -52 90 -116 115 -141 25 -26 44 -51 42 -56 -1 -4 2 -6 8 -2 5 3 10 2
10 -2 0 -5 18 -16 39 -25 96 -42 153 -124 153 -220 0 -66 -20 -99 -77 -122
-39 -16 -145 -27 -145 -15 0 5 -9 9 -21 9 -11 0 -17 5 -14 10 3 6 15 10 27 10
11 0 39 13 62 28 22 15 49 31 59 35 34 13 19 30 -20 22 -21 -4 -47 -7 -58 -8
-11 -1 -23 -10 -27 -19 -4 -11 -18 -18 -34 -18 -17 0 -28 -6 -31 -19 -3 -12
-11 -17 -19 -14 -8 3 -14 -1 -14 -11 0 -9 -6 -13 -14 -10 -7 3 -16 -1 -19 -9
-4 -10 2 -17 16 -22 17 -5 18 -8 7 -12 -8 -3 -30 -19 -48 -34 -18 -16 -49 -36
-69 -44 -53 -22 -100 -2 -55 24 14 9 13 10 -10 11 -16 0 -28 5 -28 11 0 5 -5
7 -10 4 -6 -4 -27 8 -47 26 -49 43 -105 66 -179 73 -81 8 -143 -5 -238 -50
-44 -21 -87 -39 -95 -40 -9 -2 -32 -6 -51 -11 -31 -8 -50 -9 -120 -4 -13 1
-20 8 -20 20 0 11 -5 23 -10 26 -13 8 -6 35 25 96 13 26 21 50 17 54 -4 5 -1
5 6 1 17 -10 56 30 72 75 10 26 22 39 46 48 19 7 38 10 43 6 5 -3 13 0 17 6
13 22 66 38 86 25 15 -9 21 -8 28 4 16 25 11 35 -25 46 -32 10 -35 10 -30 -7
7 -20 -1 -23 -42 -19 -29 2 -65 -18 -57 -32 4 -7 3 -8 -4 -4 -12 7 -64 -17
-90 -41 -7 -7 -22 -13 -32 -13 -27 0 -51 -11 -45 -20 3 -5 -13 -19 -35 -31
-61 -35 -85 -80 -84 -159 1 -65 22 -145 50 -187 36 -56 112 -78 212 -63 91 14
152 37 145 56 -3 7 -9 12 -13 9 -5 -3 -11 -1 -15 5 -3 5 0 10 7 10 8 0 6 5 -4
11 -10 5 -18 19 -18 30 0 11 8 22 18 26 9 3 26 17 37 30 20 23 96 42 190 46
50 3 58 -1 42 -18 -8 -9 -16 -10 -25 -3 -9 8 -17 6 -27 -8 -17 -22 -19 -44 -5
-44 6 0 10 9 10 20 0 11 5 20 10 20 13 0 13 -10 -2 -43 -13 -27 -28 -36 -28
-16 0 5 -5 7 -11 3 -8 -5 -7 -9 4 -15 17 -10 47 -2 47 12 0 4 7 6 15 3 18 -7
20 7 3 24 -9 9 -7 12 10 12 21 0 48 -40 44 -62 -1 -4 10 -10 26 -14 15 -3 48
-14 74 -24 40 -16 49 -16 59 -4 7 8 30 14 60 14 60 0 87 10 133 50 20 18 36
27 36 21 0 -6 5 -11 10 -11 6 0 10 7 10 15 0 8 4 15 9 15 5 0 8 -8 7 -17 -1
-16 7 -18 63 -16 88 4 169 42 227 106 39 43 44 55 44 96 0 26 -8 70 -17 97
-17 51 -41 77 -252 276 -57 54 -91 94 -89 104 2 9 -14 34 -34 57 -37 39 -37
40 -18 54 17 12 24 12 36 2 8 -7 14 -8 13 -3 -4 24 3 33 29 36 21 2 27 8 27
28 0 24 3 25 60 27 33 0 61 6 63 12 2 6 15 11 29 11 15 0 36 11 50 26 14 16
30 24 39 20 9 -3 28 3 43 13 27 20 55 15 73 -13 5 -7 8 -4 8 7 0 9 7 17 15 17
8 0 16 8 17 18 0 9 2 22 2 29 2 18 13 26 26 18 9 -6 9 -10 -1 -16 -11 -7 -10
-13 7 -30 16 -16 24 -18 29 -8 5 8 4 10 -3 5 -8 -5 -12 4 -12 28 0 19 -5 38
-10 41 -8 5 -7 11 0 20 7 8 9 19 5 26 -6 8 -2 8 14 0 11 -7 21 -8 21 -2 0 5
-11 12 -24 15 -25 6 -56 -1 -56 -13 0 -10 -64 -7 -73 4 -6 6 -10 6 -14 -2 -2
-7 -17 -13 -31 -13 -31 0 -96 -36 -88 -49 3 -4 -6 -6 -19 -3 -21 4 -24 1 -19
-23 4 -21 0 -28 -16 -32 -11 -3 -20 -14 -20 -24 0 -15 -7 -18 -35 -17 -23 1
-35 6 -35 15 0 8 -5 11 -11 7 -18 -11 -119 17 -119 33 0 8 -6 13 -12 11 -20
-4 -127 33 -139 48 -8 10 -8 14 0 14 6 0 11 -4 11 -10 0 -5 5 -10 10 -10 6 0
10 7 10 15 0 12 19 15 113 15 72 0 151 7 222 21 76 15 131 19 177 16 52 -5 69
-2 79 9 9 12 25 14 64 9 32 -4 55 -3 59 3 3 6 16 8 29 4 18 -5 20 -3 10 9 -15
18 -11 48 8 60 19 12 126 11 134 -1 3 -5 14 -10 23 -10 10 0 23 -10 30 -21 10
-15 17 -18 24 -11 26 26 98 -53 98 -107 0 -11 4 -21 8 -21 5 0 14 -11 20 -25
15 -32 16 -56 2 -35 -9 13 -10 13 -10 0 0 -9 5 -21 12 -28 7 -7 8 -12 4 -12
-5 0 -18 10 -29 23 l-19 22 7 -24 c5 -17 4 -21 -5 -16 -9 5 -9 1 1 -16 7 -14
14 -67 15 -124 2 -59 7 -101 13 -103 6 -2 11 -13 11 -23 0 -27 28 -79 43 -79
12 -1 58 -68 70 -102 4 -10 12 -18 19 -18 7 0 23 -20 35 -43 12 -23 27 -41 33
-39 8 2 10 -3 7 -12 -4 -9 3 -44 14 -78 21 -68 24 -83 35 -178 10 -90 2 -328
-12 -351 -2 -4 -6 -27 -9 -51 -3 -23 -9 -70 -14 -103 -4 -33 -5 -72 0 -88 4
-15 6 -34 4 -40 -2 -7 -6 -76 -10 -154 -3 -84 -11 -155 -19 -175 -8 -18 -17
-59 -21 -90 -4 -32 -11 -58 -15 -58 -4 0 -13 -21 -20 -47 -11 -44 -21 -69 -70
-163 -9 -19 -30 -60 -45 -90 -15 -30 -34 -62 -41 -71 -8 -8 -14 -21 -14 -27 0
-7 -4 -12 -10 -12 -5 0 -10 -6 -10 -13 0 -7 -17 -31 -38 -54 -22 -23 -44 -54
-51 -70 -6 -16 -21 -33 -33 -38 -12 -6 -33 -30 -46 -55 -45 -83 -116 -183
-135 -188 -9 -2 -36 -37 -60 -76 -23 -39 -63 -101 -89 -137 -27 -36 -48 -68
-48 -72 0 -9 -61 -67 -95 -92 -31 -22 -39 -30 -72 -69 -13 -14 -30 -26 -38
-26 -8 0 -15 -6 -15 -13 0 -8 -12 -20 -27 -28 -16 -8 -30 -16 -33 -19 -3 -3
-18 -14 -35 -24 -16 -11 -36 -28 -43 -38 -7 -10 -17 -16 -22 -13 -5 3 -13 -1
-17 -10 -10 -17 -101 -65 -123 -65 -9 0 -21 -5 -28 -12 -7 -7 -31 -11 -54 -10
-28 2 -38 -1 -30 -7 10 -6 3 -10 -25 -15 -21 -4 -53 -16 -72 -27 -20 -12 -41
-17 -53 -13 -12 3 -18 2 -15 -3 12 -20 -207 -22 -338 -5 -210 29 -479 77 -585
105 -41 10 -85 19 -97 19 -13 0 -23 4 -23 8 0 4 -12 10 -27 13 -16 3 -57 13
-93 22 -36 9 -85 20 -110 24 -71 13 -130 35 -130 48 0 7 -4 13 -10 13 -5 0
-10 -6 -10 -12 0 -7 -7 -3 -14 8 -8 12 -41 29 -73 39 -32 9 -62 23 -68 30 -5
6 -23 15 -40 19 -16 3 -37 8 -45 10 -8 3 -25 5 -37 5 -12 1 -28 7 -36 15 -8 8
-30 18 -50 21 -20 4 -43 16 -53 26 -9 10 -21 19 -26 19 -6 0 -21 9 -35 20 -16
12 -34 18 -45 14 -14 -4 -21 0 -24 13 -6 20 -38 37 -91 48 -18 4 -33 12 -33
18 0 12 -44 37 -66 37 -6 0 -18 7 -25 16 -7 9 -24 20 -38 26 -21 7 -23 11 -11
18 12 8 11 10 -5 10 -11 0 -42 21 -69 47 -29 28 -51 42 -54 35 -5 -16 -22 -15
-22 1 -1 21 -25 45 -53 52 -25 7 -27 5 -27 -21 0 -19 -3 -25 -10 -18 -7 7 -8
19 -1 37 6 15 7 27 3 27 -15 0 -30 -16 -35 -35 -5 -19 -5 -19 -12 3 -5 14 -13
21 -22 18 -9 -4 -13 0 -11 12 2 12 -3 16 -19 15 -15 -2 -28 7 -40 27 -13 22
-23 29 -38 25 -11 -3 -14 -2 -7 1 9 4 5 14 -13 36 -14 16 -25 34 -25 40 0 6
-12 8 -27 4 -16 -3 -22 -3 -15 0 17 8 15 35 -2 28 -8 -3 -19 3 -26 15 -7 14
-7 21 0 21 5 0 10 5 10 10 0 6 -7 10 -15 10 -8 0 -15 6 -15 13 0 8 -4 7 -11
-3 -8 -12 -9 -10 -4 7 8 30 -6 54 -16 27 -6 -16 -8 -16 -8 -2 -1 10 -10 22
-21 28 -25 14 -26 30 -1 30 11 0 21 -8 24 -17 4 -17 4 -17 12 0 4 11 2 28 -5
43 -8 13 -11 27 -7 30 3 4 0 16 -8 28 -17 23 -20 56 -6 56 5 0 11 -7 15 -15 8
-21 26 -19 27 3 1 14 2 13 6 -3 3 -11 14 -31 24 -44 l19 -24 0 41 c0 22 -5 44
-10 47 -6 4 -8 10 -6 14 3 4 -4 22 -15 40 -11 18 -14 29 -8 25 9 -5 10 3 6 31
-3 21 -11 41 -17 45 -16 10 -31 80 -17 80 5 0 2 9 -8 20 -10 11 -24 20 -32 20
-8 0 -13 11 -13 29 0 16 -6 31 -15 35 -9 3 -15 18 -15 34 0 16 -7 35 -16 43
-10 8 -13 21 -9 36 4 16 1 23 -9 23 -16 0 -29 27 -20 42 3 5 -3 16 -15 24 -11
8 -26 32 -32 54 -8 27 -18 40 -32 42 -14 2 -24 14 -30 37 -4 18 -15 45 -24 58
-9 13 -26 53 -39 89 -12 36 -34 76 -49 90 -16 15 -24 31 -21 42 3 11 -8 27
-34 47 -24 19 -39 38 -40 53 0 12 -6 22 -14 22 -20 0 -48 29 -40 42 4 6 -1 17
-12 25 -13 9 -18 25 -17 53 1 22 -5 52 -12 67 -8 16 -15 39 -15 53 0 14 -7 34
-15 44 -8 11 -15 34 -15 50 0 43 -11 77 -21 70 -11 -7 -24 27 -28 79 -1 5 -5
5 -11 2 -9 -5 -15 15 -11 38 1 4 -4 18 -11 30 -7 12 -11 25 -10 29 1 5 -1 7
-6 6 -21 -4 -39 15 -34 38 5 27 -12 33 -22 8 -5 -13 -15 -15 -51 -10 -37 6
-45 4 -45 -8 0 -9 -4 -16 -10 -16 -5 0 -7 -7 -3 -16 3 -9 0 -20 -8 -25 -23
-14 -29 -11 -29 16 0 14 5 25 10 25 6 0 10 9 10 21 0 16 -5 20 -27 17 -21 -2
-27 -8 -25 -23 9 -74 8 -94 -5 -99 -24 -10 -39 -7 -23 4 8 5 11 10 6 10 -5 0
-3 6 3 14 9 11 6 15 -15 20 -21 6 -24 9 -14 21 7 8 20 15 28 15 12 0 13 3 4
12 -7 7 -9 31 -5 70 5 52 4 58 -11 52 -9 -3 -16 -2 -16 4 0 5 8 13 17 16 11 5
14 10 6 14 -15 10 -27 72 -13 72 8 0 8 6 0 20 -6 12 -13 52 -15 90 -3 38 -11
86 -20 106 -8 20 -15 47 -15 60 0 14 -8 25 -21 29 -13 5 -17 10 -11 14 8 5 9
24 2 66 -15 93 -37 134 -55 105 -3 -5 -1 -10 4 -10 6 0 11 -6 11 -12 -1 -7
-16 5 -35 27 -21 25 -31 43 -25 50 11 13 8 125 -3 125 -4 0 -11 0 -17 0 -5 0
-10 -8 -10 -17 0 -23 -17 -49 -26 -41 -13 14 30 98 54 104 25 7 30 24 7 24 -8
0 -15 -4 -15 -10 0 -5 -5 -10 -12 -10 -9 0 -9 3 0 12 7 7 12 25 12 40 0 20 5
28 18 29 10 0 12 3 5 6 -7 2 -13 12 -13 22 0 9 -5 22 -12 29 -7 7 -8 12 -4 12
5 0 3 7 -5 16 -10 13 -10 17 1 24 12 7 11 12 -4 29 -15 16 -17 29 -12 58 4 21
7 57 6 81 -1 29 3 42 12 42 15 0 48 35 48 50 0 10 20 37 51 70 11 11 12 21 6
32 -14 22 1 69 23 75 13 3 20 13 19 27 -1 17 -2 17 -6 4 -2 -10 -12 -18 -21
-18 -12 0 -13 3 -4 12 7 7 12 18 12 25 0 14 48 62 63 63 14 0 19 -30 7 -45
-16 -19 -20 -97 -6 -92 6 2 12 20 14 40 2 19 9 41 17 47 9 8 12 22 8 40 -3 18
1 37 11 51 16 24 15 25 31 -26 5 -16 35 -21 35 -6 0 5 10 11 23 15 25 6 57 56
57 89 1 20 2 20 11 4 5 -9 7 -21 4 -27 -3 -5 -2 -21 1 -37 7 -24 8 -25 15 -8
4 11 5 30 2 41 -2 12 0 25 6 28 6 4 11 16 11 27 0 11 5 17 10 14 6 -3 10 -24
10 -46 0 -37 1 -38 18 -21 19 19 25 120 7 135 -6 5 -3 7 6 4 11 -4 20 3 28 19
10 23 31 33 31 15 0 -5 -9 -30 -20 -56 -23 -53 -24 -65 -10 -65 6 0 10 9 10
19 0 10 7 21 14 24 8 3 18 23 22 44 10 55 37 70 54 31 8 -18 9 -12 6 27 -3 28
-2 42 0 33 6 -20 19 -23 29 -8 3 6 14 10 25 10 13 0 17 5 13 20 -4 15 0 20 13
20 14 0 15 3 6 12 -17 17 -15 43 8 85 25 47 26 83 3 83 -14 0 -14 3 4 19 19
18 20 22 7 72 -8 30 -14 77 -14 106 0 55 -8 64 -34 38 -16 -17 -76 -21 -76 -5
0 6 9 10 20 10 21 0 25 7 12 27 -5 8 -13 9 -22 3 -29 -18 -30 -10 -5 27 26 39
34 93 13 93 -9 0 -9 3 0 12 26 26 2 108 -32 108 -15 0 -16 2 -6 15 12 14 15
13 29 -9 28 -42 65 7 38 50 -3 6 4 20 18 32 16 14 25 17 29 9 2 -7 5 -2 5 11
1 12 7 22 16 22 9 0 12 6 9 15 -5 11 1 15 25 15 24 0 31 4 31 20 0 12 -7 20
-17 20 -15 0 -16 2 -3 10 13 8 13 13 2 31 -12 19 -12 20 8 14 31 -10 74 3 62
18 -16 18 10 47 35 41 15 -4 25 0 32 15 7 12 9 21 5 21 -3 0 -2 6 4 13 6 7 7
18 2 26 -4 8 -6 20 -3 28 3 7 0 13 -6 13 -6 0 -11 -9 -11 -19 0 -11 -7 -26
-15 -35 -8 -8 -15 -19 -15 -23 0 -5 -13 -22 -30 -38 l-30 -29 0 32 c0 20 5 32
13 32 8 0 24 9 37 20 18 16 20 22 11 34 -10 12 -9 20 6 40 22 31 24 31 54 6
l23 -21 17 22 c9 12 21 19 27 15 26 -16 42 6 40 54 -1 27 -6 46 -10 44 -4 -3
-8 0 -8 5 0 6 -11 11 -24 11 -26 0 -43 15 -28 24 5 3 38 0 75 -7 36 -6 69 -8
72 -5 3 3 7 17 9 30 1 13 6 29 10 36 4 7 5 20 2 30 -5 15 0 18 28 17 30 -1 34
1 25 16 -15 29 -10 45 7 21 15 -22 17 -22 34 -7 16 15 19 15 34 0 21 -22 39
-9 31 22 -5 20 -3 24 9 20 10 -4 16 -1 16 8 0 8 5 15 12 15 6 0 1 11 -12 25
-13 14 -20 25 -15 25 4 0 0 10 -11 22 l-19 21 35 -7 c19 -3 41 -15 49 -26 16
-24 61 -27 61 -5 0 8 5 15 11 15 6 0 8 -8 4 -19 -4 -15 -1 -20 12 -19 10 0 23
-1 28 -2 14 -5 75 32 75 45 0 6 -9 16 -20 23 -11 7 -20 19 -20 27 0 13 4 14
22 4 17 -9 24 -9 33 4 7 9 16 13 21 8 5 -5 19 -12 30 -15 16 -5 23 -2 27 15 6
22 27 18 27 -6 0 -19 27 -26 34 -9 3 9 2 24 -4 33 -9 18 -4 31 12 31 4 0 8
-13 8 -30 0 -16 5 -30 10 -30 6 0 10 14 10 30 0 33 2 35 31 19 12 -6 37 -8 60
-4 33 6 39 10 34 25 -4 12 2 24 17 34 21 15 23 15 29 -1 4 -10 5 -21 2 -25
-10 -17 17 -7 29 11 9 12 28 21 53 23 32 2 42 8 53 31 10 21 18 27 30 21 34
-14 72 -16 72 -4 0 8 11 11 30 8 18 -3 35 1 42 9 8 9 14 10 23 3 8 -7 16 -7
19 -2z m5929 0 c-12 -6 -24 -20 -26 -32 -3 -19 -4 -19 -11 -3 -11 22 10 47 38
46 l21 0 -22 -11z m-6183 -42 c0 -8 -51 -13 -56 -5 -3 5 9 9 25 9 17 0 31 -2
31 -4z m-190 -56 c-8 -5 -22 -9 -30 -9 -10 0 -8 3 5 9 27 12 43 12 25 0z
m-236 -20 c4 -5 7 -13 5 -18 -2 -6 -17 1 -34 15 -29 24 -29 24 -5 18 14 -4 29
-11 34 -15z m7083 -26 c15 2 20 1 11 -1 -27 -7 -22 -18 27 -58 44 -36 44 -37
97 -26 60 13 118 44 118 64 0 7 -6 19 -12 26 -11 11 -9 11 10 2 12 -6 22 -20
22 -30 0 -26 -72 -67 -133 -75 l-47 -7 41 -35 c44 -37 55 -39 110 -24 49 14
66 34 48 57 -13 15 -12 15 9 4 46 -25 23 -54 -59 -73 -46 -10 -49 -13 -25 -16
20 -3 25 -6 16 -12 -9 -6 -1 -17 31 -39 48 -34 109 -88 109 -97 0 -3 -20 9
-44 26 -37 25 -55 30 -108 32 l-63 1 55 6 54 6 -33 28 c-19 16 -46 27 -64 28
-18 1 -24 3 -14 6 25 7 21 14 -31 56 -40 33 -52 38 -84 34 -21 -3 -41 -1 -44
4 -3 5 9 9 25 9 17 0 31 2 31 5 0 11 -66 65 -86 71 -29 8 -126 -42 -187 -96
-53 -47 -73 -48 -36 -2 13 16 63 48 112 71 48 23 87 46 87 51 0 5 -9 14 -20
20 -11 6 -20 16 -20 22 0 5 15 -1 34 -16 23 -17 44 -25 63 -22z m-377 26 c0
-5 -7 -10 -16 -10 -8 0 -12 5 -9 10 3 6 10 10 16 10 5 0 9 -4 9 -10z m563 -7
c-13 -2 -33 -2 -45 0 -13 2 -3 4 22 4 25 0 35 -2 23 -4z m-110 -10 c-7 -2 -19
-2 -25 0 -7 3 -2 5 12 5 14 0 19 -2 13 -5z m-323 -40 c-34 -7 -42 -24 -22 -47
16 -18 16 -18 -5 -7 -22 11 -30 40 -16 54 3 4 20 6 37 6 28 -2 28 -2 6 -6z
m-7290 -23 c0 -5 -2 -10 -4 -10 -3 0 -8 5 -11 10 -3 6 -1 10 4 10 6 0 11 -4
11 -10z m7807 -36 c-3 -3 -12 -4 -19 -1 -8 3 -5 6 6 6 11 1 17 -2 13 -5z
m-7782 -14 c3 -5 1 -10 -4 -10 -6 0 -11 5 -11 10 0 6 2 10 4 10 3 0 8 -4 11
-10z m7430 -53 c-11 -6 -33 -18 -49 -27 -39 -20 -43 -38 -13 -49 14 -6 28 -15
32 -20 3 -6 18 -9 33 -6 18 4 21 3 9 -3 -15 -6 -11 -13 28 -46 26 -21 44 -40
41 -43 -5 -5 -66 40 -141 102 -16 14 -33 25 -38 25 -5 0 -6 -20 -4 -45 3 -25
3 -54 0 -66 -5 -19 -60 -55 -70 -46 -2 3 4 8 15 11 27 9 42 48 36 98 -6 53 5
70 71 102 51 26 86 35 50 13z m463 -24 c-10 -2 -26 -2 -35 0 -10 3 -2 5 17 5
19 0 27 -2 18 -5z m-80 -10 c-10 -2 -26 -2 -35 0 -10 3 -2 5 17 5 19 0 27 -2
18 -5z m-193 -33 c-16 -4 -39 -8 -50 -8 -16 0 -15 2 5 8 14 4 36 8 50 8 22 0
22 -1 -5 -8z m-89 -17 c-15 -4 -16 -7 -5 -15 11 -8 10 -9 -4 -4 -10 3 -28 6
-40 7 -20 1 -20 2 3 9 14 4 34 8 45 8 19 0 19 -1 1 -5z m61 -29 c-3 -3 -12 -4
-19 -1 -8 3 -5 6 6 6 11 1 17 -2 13 -5z m-220 -10 c-3 -3 -12 -4 -19 -1 -8 3
-5 6 6 6 11 1 17 -2 13 -5z m-80 -20 c-3 -3 -12 -4 -19 -1 -8 3 -5 6 6 6 11 1
17 -2 13 -5z m-151 -46 c-19 -11 -19 -11 -1 -24 23 -17 12 -18 -17 -3 -21 11
-21 12 -3 25 10 8 24 14 29 14 6 0 2 -6 -8 -12z m-7361 -16 c-3 -3 -11 0 -18
7 -9 10 -8 11 6 5 10 -3 15 -9 12 -12z m55 -93 c0 -5 -9 -9 -20 -9 -22 0 -27
16 -7 23 15 5 27 -1 27 -14z m3612 -132 c43 -52 108 -152 108 -167 0 -5 3 -10
8 -10 11 0 45 -76 40 -91 -2 -7 -19 14 -37 47 -19 32 -62 100 -96 149 -75 109
-78 115 -68 115 5 0 25 -19 45 -43z m-3807 14 c-3 -5 -19 -9 -35 -9 -38 1 -28
18 11 18 17 0 28 -4 24 -9z m-94 -21 c11 0 17 -4 14 -10 -9 -15 -34 -12 -53 7
-16 16 -16 16 1 10 10 -4 28 -7 38 -7z m72 -20 c6 -23 -5 -33 -27 -24 -27 11
-17 39 15 43 4 1 9 -8 12 -19z m-59 -75 c-4 -8 -14 -15 -23 -15 -14 1 -13 3 3
15 25 19 27 19 20 0z m3683 -7 c-3 -8 -6 -5 -6 6 -1 11 2 17 5 13 3 -3 4 -12
1 -19z m-47 -83 c0 -15 -21 -12 -30 5 -11 20 -10 21 9 10 12 -6 21 -13 21 -15z
m-3805 -55 c-3 -5 -11 -10 -16 -10 -6 0 -7 5 -4 10 3 6 11 10 16 10 6 0 7 -4
4 -10z m88 -21 c-9 -9 -12 -7 -10 9 1 14 5 18 11 12 7 -7 6 -14 -1 -21z m-376
-5 c-3 -3 -12 -4 -19 -1 -8 3 -5 6 6 6 11 1 17 -2 13 -5z m355 -36 c-9 -9 -15
-9 -24 0 -9 9 -7 12 12 12 19 0 21 -3 12 -12z m-32 -88 c0 -5 -7 -10 -15 -10
-8 0 -15 5 -15 10 0 6 7 10 15 10 8 0 15 -4 15 -10z m48 -52 c-4 -40 -38 -54
-38 -16 0 24 16 48 33 48 4 0 7 -15 5 -32z m-38 -93 c0 -35 -5 -47 -21 -56
-14 -7 -24 -8 -31 -1 -7 7 -3 14 11 21 16 9 21 21 21 52 0 24 4 38 10 34 6 -3
10 -26 10 -50z m-152 -67 c-5 -15 -23 -11 -26 6 -2 11 2 14 13 10 9 -4 14 -11
13 -16z m77 -32 c15 -15 10 -26 -12 -26 -7 0 -13 9 -13 20 0 24 6 25 25 6z
m-455 -20 c0 -3 -4 -8 -10 -11 -5 -3 -10 -1 -10 4 0 6 5 11 10 11 6 0 10 -2
10 -4z m377 -58 c-3 -8 -6 -5 -6 6 -1 11 2 17 5 13 3 -3 4 -12 1 -19z m109 -5
c-10 -10 -19 5 -10 18 6 11 8 11 12 0 2 -7 1 -15 -2 -18z m144 -8 c0 -30 -25
-34 -33 -6 -5 22 0 31 20 31 7 0 13 -11 13 -25z m-480 -19 c0 -11 -19 -15 -25
-6 -3 5 1 10 9 10 9 0 16 -2 16 -4z m436 -95 c-15 -75 -32 -121 -42 -121 -14
0 0 65 18 88 7 8 6 17 -3 28 -10 13 -10 17 0 24 8 5 10 13 5 21 -6 11 -4 11
10 0 12 -10 16 -23 12 -40z m-328 25 c-7 -8 -15 -12 -17 -11 -5 6 10 25 20 25
5 0 4 -6 -3 -14z m165 -11 c4 -8 2 -17 -3 -20 -6 -4 -10 3 -10 14 0 25 6 27
13 6z m97 -48 c0 -13 -6 -31 -12 -40 -11 -15 -13 -12 -15 23 -2 30 1 40 12 40
9 0 15 -9 15 -23z m-475 -37 c-10 -11 -22 -17 -28 -13 -6 4 -3 12 8 20 28 20
41 16 20 -7z m105 -54 c0 -11 -19 -15 -25 -6 -3 5 1 10 9 10 9 0 16 -2 16 -4z
m328 -71 c-8 -5 -19 -19 -26 -30 -10 -19 -11 -19 -18 -2 -4 12 1 26 15 41 11
12 21 29 21 37 0 32 15 30 18 -2 2 -20 -2 -37 -10 -44z m62 -9 c0 -11 -19 -15
-25 -6 -3 5 1 10 9 10 9 0 16 -2 16 -4z m4880 -18 c0 -19 -2 -20 -10 -8 -13
19 -13 30 0 30 6 0 10 -10 10 -22z m-4925 -56 l-28 -27 8 25 c8 29 38 56 43
40 2 -6 -8 -23 -23 -38z m4462 -74 c-3 -8 -6 -5 -6 6 -1 11 2 17 5 13 3 -3 4
-12 1 -19z m-4821 -206 c-14 -14 -16 -14 -16 -1 0 20 23 44 29 28 2 -6 -4 -18
-13 -27z m124 34 c0 -3 -4 -8 -10 -11 -5 -3 -10 -1 -10 4 0 6 5 11 10 11 6 0
10 -2 10 -4z m4152 -58 c-7 -7 -12 -8 -12 -2 0 14 12 26 19 19 2 -3 -1 -11 -7
-17z m-4382 3 c0 -6 -4 -13 -10 -16 -5 -3 -10 1 -10 9 0 9 5 16 10 16 6 0 10
-4 10 -9z m-22 -54 c2 -11 -3 -17 -16 -17 -26 0 -34 11 -20 27 14 17 32 12 36
-10z m5069 -329 c-3 -7 -5 -2 -5 12 0 14 2 19 5 13 2 -7 2 -19 0 -25z m10 -40
c-3 -8 -6 -5 -6 6 -1 11 2 17 5 13 3 -3 4 -12 1 -19z m10 -50 c-3 -7 -5 -2 -5
12 0 14 2 19 5 13 2 -7 2 -19 0 -25z m-197 -53 c7 -8 9 -15 6 -15 -4 0 -14 7
-22 15 -9 8 -11 15 -6 15 5 0 15 -7 22 -15z m-154 -44 c-7 -10 17 -21 42 -20
14 0 13 2 -3 9 -18 8 -18 9 -2 9 10 1 20 -6 23 -14 4 -8 14 -15 24 -15 11 0
22 -4 25 -10 3 -5 17 -10 31 -10 17 0 23 4 18 12 -11 18 20 3 86 -42 32 -22
64 -40 69 -40 15 0 14 -20 -1 -21 -18 -1 -42 -6 -65 -13 -11 -3 -28 1 -39 9
-18 14 -18 16 -1 26 21 12 23 31 2 22 -9 -3 -24 2 -35 12 -10 9 -27 15 -37 12
-14 -4 -13 -5 5 -6 13 0 22 -6 20 -13 -6 -17 -51 -20 -73 -4 -16 12 -17 16 -6
30 19 22 9 20 -19 -4 -32 -28 -100 -25 -100 3 0 11 8 26 18 33 15 12 15 12 -7
7 -21 -5 -22 -4 -12 16 7 11 19 21 27 21 8 0 13 -4 10 -9z m-72 -37 c10 -26 7
-44 -9 -44 -9 0 -12 6 -9 15 4 11 -1 15 -17 15 -23 1 -23 1 -5 15 25 19 32 19
40 -1z m-77 -6 c16 -27 13 -48 -7 -48 -23 0 -35 22 -26 45 7 18 22 19 33 3z
m-97 -32 c0 -31 -13 -46 -48 -52 -101 -19 -328 -218 -308 -270 4 -9 -2 -14
-15 -14 -17 0 -19 4 -13 23 4 12 7 30 6 40 0 9 3 15 9 12 5 -4 9 0 9 9 0 14
85 106 99 106 4 0 15 15 26 33 10 17 29 40 42 50 13 10 29 24 36 31 30 30 58
41 106 44 39 2 51 -1 51 -12z m46 -19 c3 -29 -5 -34 -23 -16 -13 13 -5 51 10
46 5 -1 11 -15 13 -30z m209 -123 c77 -19 99 -39 70 -61 -38 -28 -135 -73
-158 -73 -23 0 -24 3 -25 67 -1 36 1 70 4 75 8 12 37 10 109 -8z m-630 -34 c3
-5 1 -10 -4 -10 -6 0 -11 5 -11 10 0 6 2 10 4 10 3 0 8 -4 11 -10z m443 -8 c2
-7 -6 -12 -17 -12 -21 0 -27 11 -14 24 9 9 26 2 31 -12z m-175 -29 c3 -10 5
-40 5 -66 l0 -48 -46 6 c-68 10 -82 15 -82 31 0 19 28 30 43 15 13 -13 47 -15
47 -2 0 6 -4 13 -10 16 -14 9 -12 52 3 58 24 10 36 7 40 -10z m317 -199 c0 -8
-5 -12 -10 -9 -6 4 -8 11 -5 16 9 14 15 11 15 -7z m-120 -20 c0 -8 -4 -14 -10
-14 -5 0 -10 9 -10 21 0 11 5 17 10 14 6 -3 10 -13 10 -21z m-4683 -16 c-3 -8
-6 -5 -6 6 -1 11 2 17 5 13 3 -3 4 -12 1 -19z m4626 -40 c7 6 19 7 26 3 9 -6
6 -10 -11 -14 -39 -11 -58 -8 -58 9 0 14 3 14 15 4 11 -9 19 -9 28 -2z m-5003
-59 c0 -5 -7 -9 -15 -9 -9 0 -15 9 -15 21 0 18 2 19 15 9 8 -7 15 -16 15 -21z
m4755 -59 c3 -5 1 -10 -4 -10 -6 0 -11 5 -11 10 0 6 2 10 4 10 3 0 8 -4 11
-10z m-5195 -24 c0 -14 -118 -126 -132 -126 -21 0 -4 32 29 57 20 15 48 40 62
54 30 31 41 35 41 15z m590 -65 c0 -10 -7 -24 -15 -31 -16 -13 -18 -8 -9 28 8
27 24 29 24 3z m5799 -254 c12 -15 12 -17 -3 -11 -9 3 -16 13 -16 22 0 8 1 13
3 11 1 -2 9 -12 16 -22z m-5468 -130 c-10 -9 -11 -8 -5 6 3 10 9 15 12 12 3
-3 0 -11 -7 -18z m5522 10 c3 -8 1 -20 -5 -28 -8 -11 -9 -11 -5 2 3 9 0 22 -6
28 -8 8 -8 11 0 11 6 0 13 -6 16 -13z m-6514 -13 c13 -12 -8 -10 -29 2 l-25
15 25 -7 c14 -3 27 -8 29 -10z m1082 -47 c-8 -8 -11 -8 -11 0 0 6 -3 20 -7 30
-7 17 -6 17 11 0 14 -14 16 -21 7 -30z m-1041 -28 c0 -5 -4 -9 -10 -9 -5 0
-10 7 -10 16 0 8 5 12 10 9 6 -3 10 -10 10 -16z m1030 -29 c0 -5 -4 -10 -10
-10 -5 0 -10 5 -10 10 0 6 5 10 10 10 6 0 10 -4 10 -10z m-1072 -11 c-2 -6 -8
-10 -13 -10 -5 0 -11 4 -13 10 -2 6 4 11 13 11 9 0 15 -5 13 -11z m107 -49
c21 -23 12 -39 -13 -24 -19 12 -29 44 -14 44 5 0 17 -9 27 -20z m4892 -242
c-3 -8 -6 -5 -6 6 -1 11 2 17 5 13 3 -3 4 -12 1 -19z m-522 -38 c3 -5 -1 -10
-10 -10 -9 0 -13 5 -10 10 3 6 8 10 10 10 2 0 7 -4 10 -10z m-95 -10 c0 -5 -7
-7 -15 -4 -8 4 -15 8 -15 10 0 2 7 4 15 4 8 0 15 -4 15 -10z m-3160 -40 c0 -5
-2 -10 -4 -10 -3 0 -8 5 -11 10 -3 6 -1 10 4 10 6 0 11 -4 11 -10z m109 -45
c21 -6 57 -88 41 -93 -5 -2 -10 -13 -10 -25 1 -20 2 -20 13 -5 11 14 13 12 14
-18 1 -19 7 -41 13 -49 9 -11 9 -15 1 -15 -6 0 -11 3 -11 8 0 4 -15 23 -33 42
-35 37 -127 163 -127 174 0 3 7 6 15 6 8 0 15 -7 15 -17 0 -9 3 -13 7 -10 3 4
13 1 21 -5 11 -10 14 -8 12 7 -3 28 1 43 7 23 2 -9 12 -20 22 -23z m131 -279
c16 -25 30 -48 30 -52 0 -9 -45 50 -61 79 -19 33 0 17 31 -27z m243 -430 c10
-21 13 -35 7 -31 -7 4 -23 32 -36 62 -27 60 -33 98 -7 43 9 -19 25 -52 36 -74z
m-3 64 c0 -11 -2 -20 -4 -20 -2 0 -6 9 -9 20 -3 11 -1 20 4 20 5 0 9 -9 9 -20z
m148 -485 c-3 -3 -9 2 -12 12 -6 14 -5 15 5 6 7 -7 10 -15 7 -18z m52 -76 c0
-17 -9 -9 -24 24 l-16 32 20 -24 c11 -13 20 -27 20 -32z m207 -373 c-4 -9 5
-21 20 -31 14 -10 75 -67 135 -129 60 -61 128 -130 151 -154 23 -23 47 -40 54
-38 7 3 17 -4 23 -15 6 -11 16 -16 22 -13 7 5 9 1 5 -9 -8 -22 2 -22 19 1 12
16 13 15 14 -5 0 -15 8 -25 24 -29 14 -3 27 -13 31 -22 6 -16 7 -16 19 0 11
15 15 16 32 3 13 -10 15 -14 5 -15 -23 0 7 -28 39 -35 37 -8 58 -31 42 -47 -7
-7 -12 -25 -12 -40 0 -27 -13 -37 -24 -19 -3 5 -25 19 -48 31 -24 12 -45 25
-48 29 -3 3 -18 13 -34 21 -56 29 -66 35 -66 42 0 5 -11 8 -25 8 -14 0 -25 5
-25 12 0 6 -3 8 -6 5 -4 -4 -24 7 -44 23 -39 31 -60 38 -60 20 0 -5 5 -10 10
-10 6 0 10 -6 10 -14 0 -18 21 -35 48 -39 12 -2 35 -15 50 -30 15 -15 31 -27
35 -27 4 0 23 -16 43 -35 19 -19 42 -35 49 -35 7 0 19 -7 26 -16 18 -21 137
-77 212 -100 33 -9 64 -23 71 -29 12 -12 74 -31 89 -27 4 1 7 -3 7 -8 0 -6 11
-10 24 -10 14 0 28 -4 31 -10 3 -5 16 -10 27 -10 12 0 29 -6 37 -13 9 -8 35
-19 58 -26 24 -6 42 -15 42 -19 -1 -4 -1 -12 0 -18 2 -17 145 -61 241 -74 46
-6 87 -13 91 -15 19 -12 275 -56 409 -70 85 -9 175 -20 200 -26 25 -5 70 -13
100 -18 31 -5 72 -16 93 -24 36 -16 37 -17 31 -56 -5 -32 -3 -42 14 -57 11 -9
18 -23 15 -30 -6 -16 -43 -19 -43 -4 0 6 -5 10 -11 10 -7 0 -9 -10 -5 -24 7
-28 -9 -48 -56 -72 -18 -9 -28 -21 -24 -29 3 -8 0 -12 -7 -9 -7 2 -18 -9 -24
-27 -10 -25 -17 -30 -33 -26 -13 3 -20 0 -20 -9 0 -8 -5 -14 -10 -14 -6 0 -6
-7 1 -18 10 -15 8 -25 -10 -49 -12 -16 -24 -36 -25 -44 -10 -49 -36 -66 -36
-24 0 31 -7 31 -35 1 -13 -14 -26 -22 -31 -18 -4 4 -4 2 0 -5 3 -6 2 -14 -4
-18 -5 -3 -10 -17 -10 -31 l0 -25 -94 7 c-52 3 -116 3 -142 -1 l-49 -7 38 -13
c21 -7 41 -16 44 -18 10 -10 -9 -28 -26 -25 -9 2 -29 -7 -44 -19 -25 -19 -27
-27 -29 -99 l-2 -79 -3 70 c-5 110 -7 115 -53 115 -36 0 -40 -3 -40 -25 0 -26
-42 -75 -65 -75 -8 0 -15 9 -15 20 0 17 -7 20 -43 20 -31 0 -49 6 -62 20 -22
24 -37 25 -99 4 -56 -19 -64 -33 -42 -77 15 -30 16 -31 22 -9 12 41 27 24 21
-23 -4 -25 -3 -45 1 -45 11 0 34 17 33 24 -1 3 -1 15 -1 26 0 19 1 19 20 3 11
-10 20 -25 20 -35 0 -9 9 -22 19 -28 26 -13 31 -13 31 5 0 8 6 15 14 15 9 0
12 7 9 20 -5 19 0 20 66 20 64 0 71 -2 71 -20 0 -16 7 -20 35 -20 25 0 37 -5
42 -17 3 -10 15 -28 26 -40 l20 -23 -21 0 c-12 0 -22 -4 -22 -10 0 -13 27 -13
35 0 3 6 15 10 26 10 13 0 19 7 19 22 0 21 0 21 21 2 20 -18 20 -19 2 -22 -20
-3 -51 -42 -33 -42 5 0 10 -8 10 -17 1 -24 79 -63 125 -63 32 0 35 -2 35 -30
0 -28 2 -30 40 -30 35 0 40 3 40 23 0 28 55 52 99 42 29 -6 59 15 47 33 -8 14
31 45 49 39 8 -4 15 -15 15 -26 0 -11 5 -23 11 -27 6 -3 9 -19 5 -35 -3 -16
-1 -29 4 -29 6 0 10 8 10 17 0 14 2 15 13 4 10 -11 10 -14 0 -18 -18 -6 -16
-40 2 -47 9 -3 13 -14 11 -28 -3 -13 -5 -29 -5 -35 -1 -7 -7 -13 -14 -13 -8 0
-22 -9 -32 -20 -18 -19 -17 -20 5 -20 22 0 21 -3 -18 -42 -23 -22 -42 -48 -42
-56 0 -10 -11 -4 -30 17 -33 34 -50 39 -50 16 0 -8 7 -15 15 -15 19 0 19 -5
-2 -30 -10 -11 -21 -16 -27 -11 -6 5 -32 12 -58 15 -27 4 -48 12 -48 18 0 6
-14 8 -37 3 -21 -3 -57 -8 -81 -10 -24 -2 -51 -10 -61 -19 -10 -9 -21 -13 -24
-10 -4 4 -13 1 -22 -6 -12 -10 -16 -9 -21 4 -3 9 -15 16 -26 16 -14 0 -18 5
-14 15 3 8 1 15 -3 15 -5 0 -24 14 -41 30 -18 17 -38 29 -44 27 -14 -5 -66 21
-66 33 0 5 -19 22 -42 37 -25 15 -37 28 -30 31 10 3 9 8 -4 23 -9 10 -23 19
-29 19 -7 0 -20 11 -29 25 -9 14 -13 25 -10 25 4 0 -3 9 -16 20 -13 11 -31 20
-42 20 -11 0 -18 7 -18 20 0 12 -10 25 -25 32 -14 6 -24 17 -21 23 2 6 -9 17
-25 24 -16 7 -29 19 -29 26 0 8 -8 16 -17 19 -10 3 -31 31 -48 61 -28 53 -35
59 -62 56 -6 -1 -14 12 -18 29 -4 17 -10 28 -14 26 -10 -7 -81 61 -81 77 0 8
-9 17 -21 20 -12 3 -19 10 -16 15 6 9 -27 42 -42 42 -5 0 -11 9 -14 20 -3 11
-12 20 -21 20 -8 0 -71 57 -140 128 -164 167 -186 191 -186 202 0 5 -13 24
-30 42 -29 31 -32 41 -33 98 -1 15 -9 29 -21 35 -12 6 -22 21 -24 33 -3 17 -8
21 -23 17 -27 -9 -41 34 -37 112 3 64 -2 73 -39 73 -24 0 -44 25 -30 39 6 6
17 11 25 11 12 0 14 10 9 49 -5 39 -3 49 7 45 8 -3 16 5 20 21 6 23 11 26 31
21 20 -5 25 -3 25 14 0 11 5 20 12 20 7 0 5 5 -5 13 -9 6 -21 25 -27 41 -10
28 -11 28 -26 10 -15 -18 -15 -18 -11 4 4 15 0 25 -9 29 -8 3 -14 13 -14 22 0
9 -5 22 -12 29 -7 7 -9 12 -4 12 4 0 -6 12 -23 26 -17 14 -36 22 -42 19 -14
-9 -88 69 -105 112 -8 17 -28 41 -45 54 -23 16 -27 24 -18 30 11 6 8 14 -11
34 -25 27 -37 65 -20 65 6 0 10 9 10 20 0 11 -4 20 -10 20 -18 0 -10 27 13 43
19 14 20 16 4 16 -14 1 -17 6 -11 23 6 20 24 47 33 48 2 0 1 -6 -2 -14z m365
-98 c-7 -7 -12 -8 -12 -2 0 6 3 14 7 17 3 4 9 5 12 2 2 -3 -1 -11 -7 -17z m73
-38 c3 -5 1 -10 -4 -10 -6 0 -11 5 -11 10 0 6 2 10 4 10 3 0 8 -4 11 -10z
m235 -410 c0 -5 -7 -10 -15 -10 -8 0 -15 5 -15 10 0 6 7 10 15 10 8 0 15 -4
15 -10z m-5 -58 c-3 -3 -11 0 -18 7 -9 10 -8 11 6 5 10 -3 15 -9 12 -12z
m1876 -471 c-13 -23 -61 -55 -61 -41 0 12 50 59 63 60 4 0 3 -8 -2 -19z m-201
-15 c0 -3 -4 -8 -10 -11 -5 -3 -10 -1 -10 4 0 6 5 11 10 11 6 0 10 -2 10 -4z
m-1984 -63 c-10 -10 -19 5 -10 18 6 11 8 11 12 0 2 -7 1 -15 -2 -18z m1354
-773 c12 -8 11 -10 -7 -10 -13 0 -23 5 -23 10 0 13 11 13 30 0z m70 -160 c0
-5 -4 -10 -10 -10 -5 0 -10 5 -10 10 0 6 5 10 10 10 6 0 10 -4 10 -10z m-465
-220 c3 -5 1 -10 -4 -10 -6 0 -11 5 -11 10 0 6 2 10 4 10 3 0 8 -4 11 -10z
m875 -205 c0 -5 -13 -10 -30 -10 -30 0 -36 5 -23 19 10 10 54 3 53 -9z m3518
-852 c-2 -344 -6 -528 -13 -528 -7 0 -11 184 -13 528 -2 466 0 527 13 527 13
0 15 -61 13 -527z m190 317 c-3 -21 0 -30 9 -30 7 0 16 14 20 30 3 17 12 30
20 30 11 0 13 -7 8 -30 -4 -19 -3 -30 4 -30 16 0 13 -19 -4 -37 -12 -11 -13
-18 -4 -29 8 -10 7 -17 -5 -29 -9 -9 -16 -25 -16 -36 0 -11 -7 -19 -16 -19
-11 0 -14 8 -12 25 4 31 -15 34 -22 3 -3 -13 -13 -24 -22 -26 -12 -2 -14 3
-10 24 3 16 -1 30 -9 35 -12 8 -11 11 4 20 22 13 22 28 0 44 -15 11 -15 13 5
24 14 7 22 21 22 36 0 16 6 25 16 25 12 0 15 -7 12 -30z m260 14 c22 -15 30
-66 14 -90 -12 -19 -49 -34 -81 -34 -29 0 -31 -3 -31 -35 0 -28 -4 -35 -20
-35 -11 0 -21 6 -21 13 -5 48 -8 174 -4 185 7 18 115 16 143 -4z m112 -24 l0
-40 45 0 45 0 0 40 c0 33 3 40 20 40 19 0 20 -7 20 -105 0 -98 -1 -105 -20
-105 -17 0 -20 7 -20 45 l0 45 -45 0 -45 0 0 -45 c0 -41 -2 -45 -25 -45 -25 0
-25 0 -25 98 0 54 3 102 7 105 3 4 15 7 25 7 14 0 18 -8 18 -40z m354 9 c50
-59 27 -159 -40 -178 -36 -10 -50 -8 -90 11 -50 24 -60 118 -18 167 22 27 32
31 74 31 42 0 52 -4 74 -31z m226 11 c0 -16 -7 -20 -30 -20 l-30 0 0 -85 c0
-78 -2 -85 -20 -85 -17 0 -19 8 -22 83 l-3 82 -32 3 c-25 2 -33 8 -33 23 0 17
8 19 85 19 78 0 85 -2 85 -20z m207 -4 c24 -21 28 -31 28 -79 0 -44 -5 -60
-23 -80 -30 -32 -74 -41 -118 -22 -66 27 -82 128 -29 181 34 34 103 33 142 0z
m123 -61 l0 -85 50 0 c43 0 50 -3 50 -20 0 -18 -7 -20 -75 -20 l-75 0 0 105 0
105 25 0 c25 0 25 -1 25 -85z m258 58 c28 -70 62 -166 62 -174 0 -20 -41 -8
-52 16 -9 20 -18 25 -49 25 -31 0 -38 -4 -43 -25 -5 -18 -13 -25 -30 -25 l-25
0 29 78 c50 136 48 132 74 132 16 0 27 -8 34 -27z m243 17 c21 -12 26 -59 9
-76 -8 -8 -6 -15 5 -24 20 -16 19 -59 -2 -82 -13 -14 -31 -18 -85 -18 l-68 0
0 105 0 105 61 0 c33 0 69 -5 80 -10z m-1631 -456 c0 -31 2 -35 14 -25 8 7 27
11 43 9 27 -3 28 -5 31 -70 2 -41 -1 -68 -7 -68 -6 0 -11 26 -13 57 -2 48 -6
58 -22 61 -28 6 -46 -25 -46 -75 0 -24 -4 -43 -10 -43 -6 0 -10 38 -10 95 0
57 4 95 10 95 6 0 10 -16 10 -36z m700 -59 c0 -57 -4 -95 -10 -95 -6 0 -10 38
-10 95 0 57 4 95 10 95 6 0 10 -38 10 -95z m280 67 c0 -26 2 -27 39 -24 31 3
42 0 55 -19 20 -30 21 -68 0 -97 -13 -18 -24 -22 -65 -21 l-49 2 0 94 c0 55 4
93 10 93 6 0 10 -12 10 -28z m-590 -2 c0 -11 7 -20 15 -20 8 0 15 -4 15 -10 0
-5 -7 -10 -15 -10 -11 0 -15 -12 -15 -50 0 -38 4 -50 15 -50 8 0 15 -5 15 -11
0 -6 -10 -9 -22 -7 -20 3 -23 10 -26 61 -2 46 -6 57 -20 57 -16 1 -16 2 1 14
9 7 17 21 17 30 0 9 5 16 10 16 6 0 10 -9 10 -20z m-496 -36 c21 -21 21 -88
-1 -109 -11 -11 -28 -15 -50 -13 -30 4 -33 2 -33 -24 0 -18 -5 -28 -15 -28
-12 0 -15 17 -15 93 l0 93 49 2 c34 1 55 -3 65 -14z m378 -1 c23 -20 24 -80 1
-105 -39 -44 -113 -10 -113 52 0 61 68 93 112 53z m322 -5 c21 -29 20 -77 -1
-100 -20 -22 -70 -23 -95 -1 -23 20 -24 80 -1 105 23 26 78 24 97 -4z m284
-40 c2 -32 7 -58 12 -58 6 0 10 -4 10 -9 0 -4 -28 -8 -62 -7 -58 1 -63 3 -66
25 -5 29 7 41 50 50 19 4 33 13 33 21 0 21 -34 24 -55 5 -23 -21 -36 -3 -14
20 11 10 29 15 53 13 l36 -3 3 -57z m412 51 c0 -8 4 -8 13 -2 6 6 43 10 80 11
64 0 69 -1 78 -26 13 -33 8 -104 -8 -109 -8 -3 -13 14 -15 54 -3 54 -5 58 -28
58 -23 0 -25 -4 -28 -57 -2 -43 -7 -58 -17 -58 -12 0 -15 14 -15 60 0 51 -3
60 -18 60 -30 0 -42 -21 -42 -72 0 -26 -4 -48 -10 -48 -6 0 -10 30 -10 70 0
40 4 70 10 70 6 0 10 -5 10 -11z m348 -2 c6 -6 13 -24 17 -40 7 -27 7 -27 -45
-27 -44 0 -51 -3 -48 -17 4 -22 44 -29 64 -12 19 16 30 4 14 -16 -19 -23 -76
-19 -94 7 -36 51 -8 118 48 118 19 0 38 -6 44 -13z m-448 -112 c0 -8 -7 -15
-15 -15 -8 0 -15 7 -15 15 0 8 7 15 15 15 8 0 15 -7 15 -15z"/>
<path d="M3920 9910 c0 -5 5 -10 10 -10 6 0 10 5 10 10 0 6 -4 10 -10 10 -5 0
-10 -4 -10 -10z"/>
<path d="M2420 9085 c0 -8 7 -15 15 -15 8 0 15 7 15 15 0 8 -7 15 -15 15 -8 0
-15 -7 -15 -15z"/>
<path d="M2361 8936 c-16 -19 -11 -29 8 -17 7 5 12 14 9 21 -3 9 -8 7 -17 -4z"/>
<path d="M6340 8748 c0 -16 5 -28 10 -28 13 0 13 20 0 40 -8 12 -10 9 -10 -12z"/>
<path d="M6386 8465 c4 -8 8 -15 10 -15 2 0 4 7 4 15 0 8 -4 15 -10 15 -5 0
-7 -7 -4 -15z"/>
<path d="M2360 8176 c0 -14 5 -26 10 -26 6 0 10 9 10 19 0 11 -4 23 -10 26 -6
4 -10 -5 -10 -19z"/>
<path d="M2280 8135 c0 -14 5 -25 10 -25 6 0 10 11 10 25 0 14 -4 25 -10 25
-5 0 -10 -11 -10 -25z"/>
<path d="M2270 8091 c0 -6 4 -13 10 -16 6 -3 7 1 4 9 -7 18 -14 21 -14 7z"/>
<path d="M4050 7914 c-149 -17 -206 -29 -313 -66 -89 -30 -194 -84 -271 -139
-91 -66 -224 -216 -256 -290 -5 -13 -14 -31 -20 -39 -60 -92 -99 -195 -81
-213 8 -8 11 -8 11 1 0 7 5 12 10 12 6 0 93 83 195 185 156 156 195 190 257
222 103 52 295 123 336 123 29 0 33 2 22 15 -7 8 -16 13 -20 10 -5 -3 -11 -1
-15 5 -7 12 49 14 73 2 9 -5 33 -5 52 -2 l35 7 -42 8 c-65 12 -54 31 20 32 44
1 55 -1 37 -7 -26 -8 -23 -10 23 -14 16 -1 27 3 27 11 0 15 16 17 25 3 3 -5 1
-10 -5 -10 -6 0 -8 -5 -4 -11 4 -8 9 -7 15 2 6 11 14 10 43 -4 20 -9 36 -21
36 -27 0 -5 5 -10 10 -10 19 0 10 22 -25 56 -19 18 -35 38 -35 43 0 6 -8 14
-17 20 -16 8 -15 11 7 30 14 11 32 20 41 21 17 0 34 -26 30 -47 -1 -7 7 -13
19 -13 24 0 141 -57 152 -74 4 -6 8 -7 8 -2 0 5 7 2 16 -5 15 -12 16 -11 9 11
-13 42 -24 49 -149 99 -20 8 -26 15 -19 22 7 7 23 4 49 -10 21 -12 44 -21 51
-21 7 0 13 -4 13 -9 0 -5 8 -11 18 -15 9 -3 27 -10 39 -15 45 -20 11 20 -43
51 -30 16 -54 33 -54 37 0 32 -118 38 -310 15z m-115 -44 c-3 -5 -10 -10 -16
-10 -5 0 -9 5 -9 10 0 6 7 10 16 10 8 0 12 -4 9 -10z m-105 -30 c-8 -5 -22
-10 -30 -10 -13 0 -13 1 0 10 8 5 22 10 30 10 13 0 13 -1 0 -10z m-5 -120 c3
-5 1 -10 -4 -10 -6 0 -11 5 -11 10 0 6 2 10 4 10 3 0 8 -4 11 -10z m-75 -10
c0 -5 -4 -10 -10 -10 -5 0 -10 5 -10 10 0 6 5 10 10 10 6 0 10 -4 10 -10z"/>
<path d="M4200 7866 c0 -10 9 -16 21 -16 24 0 21 23 -4 28 -10 2 -17 -3 -17
-12z"/>
<path d="M1827 7793 c-13 -12 -7 -43 9 -43 8 0 12 5 9 10 -3 6 -1 10 4 10 6 0
11 7 11 15 0 15 -21 21 -33 8z"/>
<path d="M4091 7751 c-7 -5 -2 -12 14 -21 30 -16 38 -11 15 11 -10 9 -23 13
-29 10z"/>
<path d="M1800 7684 c-13 -32 -13 -44 0 -44 6 0 10 8 10 17 0 9 7 25 17 35 15
17 15 18 -1 18 -9 0 -21 -12 -26 -26z"/>
<path d="M1759 7632 c-3 -20 -2 -29 4 -23 5 5 7 19 5 32 -3 20 -5 19 -9 -9z"/>
<path d="M1727 7574 c-3 -3 -3 -13 0 -21 5 -12 7 -12 14 -1 15 23 4 40 -14 22z"/>
<path d="M1703 7476 c-24 -11 -30 -31 -13 -41 11 -7 50 25 50 42 0 15 -6 15
-37 -1z"/>
<path d="M1720 7376 c0 -9 5 -16 10 -16 6 0 10 4 10 9 0 6 -4 13 -10 16 -5 3
-10 -1 -10 -9z"/>
<path d="M4493 7214 c-3 -9 -11 -10 -28 -4 -14 5 -41 7 -62 4 -68 -9 -98 -12
-116 -13 -10 -1 -15 -5 -12 -11 3 -6 -4 -10 -17 -10 -13 0 -34 -9 -48 -20 -14
-11 -32 -20 -40 -20 -67 -1 -388 -148 -460 -211 -115 -100 -174 -169 -158
-184 2 -2 45 36 96 85 105 101 171 145 205 136 17 -4 25 0 32 17 12 26 40 34
58 15 17 -18 57 -75 57 -82 0 -14 -47 18 -67 47 -26 35 -32 20 -7 -17 18 -29
4 -42 -25 -24 -25 16 -39 3 -23 -22 13 -21 10 -24 -30 -34 -16 -3 -28 -12 -28
-19 0 -21 -40 -52 -118 -92 -70 -35 -142 -53 -142 -34 0 5 -8 9 -17 9 -17 -1
-17 -1 -1 -14 17 -12 16 -15 -7 -40 -14 -15 -25 -30 -25 -34 -1 -9 -68 -52
-81 -52 -5 0 -9 -5 -9 -11 0 -7 12 -9 34 -5 24 5 35 3 38 -6 4 -10 9 -10 23 2
17 14 18 13 12 -2 -5 -13 -1 -18 13 -18 11 0 20 4 20 10 0 5 12 13 28 16 15 4
33 11 40 17 8 6 17 5 27 -3 23 -19 164 -8 181 14 8 12 20 15 37 11 14 -4 28
-2 31 4 4 6 21 11 38 11 25 0 28 3 19 14 -7 8 -23 17 -36 20 -30 8 -33 26 -5
26 11 0 37 -16 58 -36 20 -20 32 -33 25 -30 -6 4 -14 2 -17 -3 -8 -13 26 -23
38 -11 5 5 17 10 26 10 8 0 27 7 42 14 25 13 29 13 38 -4 15 -28 12 -33 -17
-27 -34 6 -86 -28 -59 -39 10 -4 22 -2 29 5 6 6 20 11 32 11 12 0 26 5 33 12
9 9 12 7 12 -10 0 -12 6 -22 13 -23 71 -6 91 -10 104 -21 13 -10 15 -9 12 7
-3 13 -14 21 -32 23 -19 2 -27 9 -27 23 0 10 -4 19 -10 19 -5 0 -10 -4 -10
-10 0 -5 -5 -10 -11 -10 -8 0 -7 5 1 15 7 9 21 13 31 10 11 -3 28 -8 40 -11
18 -5 20 -3 15 14 -7 22 18 43 42 35 6 -3 12 0 12 6 0 5 33 20 73 31 39 12 91
28 115 36 23 8 66 14 95 14 73 0 120 15 133 43 6 13 9 47 8 75 -2 50 -1 52 22
46 30 -8 40 14 25 58 -6 18 -12 52 -14 76 -3 43 -26 82 -49 82 -7 0 -32 18
-56 40 -23 22 -46 39 -50 38 -4 -1 -14 1 -22 4 -44 17 -58 20 -88 23 -20 1
-36 -3 -39 -11z m-253 -135 c0 -5 9 -9 20 -9 11 0 19 -3 18 -7 -1 -5 4 -21 10
-36 15 -35 15 -50 2 -42 -5 3 -10 15 -10 25 0 20 -32 44 -44 33 -3 -3 -1 -12
6 -20 6 -7 7 -17 3 -21 -4 -4 -10 -1 -12 6 -8 22 -34 14 -31 -10 2 -13 -1 -25
-7 -28 -6 -3 -10 17 -11 48 -2 47 0 52 20 53 17 1 17 2 3 6 -9 2 -15 8 -12 13
6 10 45 1 45 -11z m-86 -4 c-4 -8 -1 -22 6 -30 10 -12 9 -16 -4 -21 -18 -7
-49 13 -40 27 6 10 1 11 -20 3 -8 -3 -12 -12 -9 -21 5 -13 2 -13 -20 1 -17 11
-27 14 -32 6 -3 -5 1 -13 9 -16 9 -3 16 -14 16 -23 -1 -14 -2 -14 -14 2 -12
15 -46 24 -46 12 0 -3 7 -17 16 -30 22 -34 15 -31 -30 10 -34 31 -36 36 -20
41 11 3 46 17 79 30 71 28 117 32 109 9z m223 -39 c17 -9 38 -16 47 -16 9 0
16 -4 16 -10 0 -5 -13 -10 -30 -10 -19 0 -29 5 -27 12 1 8 -7 12 -23 10 -18
-2 -28 4 -36 22 -13 27 -14 27 53 -8z m-213 -45 c3 -4 -11 -5 -30 -3 -19 2
-34 7 -34 11 0 9 59 1 64 -8z m519 -89 c11 -12 14 -22 8 -26 -5 -4 -12 -2 -16
4 -3 5 -11 10 -18 10 -19 0 32 -31 54 -33 21 -1 46 -34 34 -45 -3 -3 -14 -1
-23 5 -55 37 -228 110 -247 105 -5 -2 -5 2 1 8 9 9 24 8 61 -3 47 -14 51 -14
66 3 8 10 12 22 9 26 -4 4 7 -2 23 -13 17 -12 38 -30 48 -41z m-238 -27 c28
-4 81 -23 118 -42 46 -23 79 -33 100 -31 54 5 46 -17 -8 -23 -69 -9 -88 -14
-189 -43 -107 -31 -150 -34 -142 -8 3 9 10 37 15 62 21 97 23 101 40 96 9 -3
39 -8 66 -11z m-255 -53 c0 -13 -12 -22 -22 -16 -10 6 -1 24 13 24 5 0 9 -4 9
-8z m-91 -24 c6 -16 4 -28 -5 -39 -12 -13 -11 -18 3 -32 13 -12 14 -20 6 -28
-8 -8 -17 -3 -34 20 -12 17 -28 31 -35 31 -27 0 -26 24 2 47 36 29 52 29 63 1z
m-501 -100 c-3 -7 -13 -15 -24 -17 -16 -3 -17 -1 -5 13 16 19 34 21 29 4z
m577 -68 c3 -5 -1 -10 -9 -10 -9 0 -16 5 -16 10 0 6 4 10 9 10 6 0 13 -4 16
-10z m-352 -17 c-7 -2 -19 -2 -25 0 -7 3 -2 5 12 5 14 0 19 -2 13 -5z"/>
<path d="M4608 6903 c7 -3 16 -2 19 1 4 3 -2 6 -13 5 -11 0 -14 -3 -6 -6z"/>
<path d="M4808 7043 c7 -3 16 -2 19 1 4 3 -2 6 -13 5 -11 0 -14 -3 -6 -6z"/>
<path d="M6207 6886 c-21 -16 -22 -32 -3 -39 9 -4 16 4 19 21 6 33 6 33 -16
18z"/>
<path d="M6335 6770 c-8 -13 20 -24 36 -15 8 6 7 10 -2 16 -18 11 -26 11 -34
-1z"/>
<path d="M4650 6708 c0 -9 -10 -14 -27 -13 -22 0 -29 -5 -31 -22 -2 -13 -8
-23 -13 -23 -6 0 -8 -3 -6 -7 3 -5 -1 -14 -9 -21 -12 -11 -13 -9 -11 7 2 11 6
24 10 27 4 4 7 12 7 17 0 6 -11 -2 -25 -17 -22 -24 -53 -37 -41 -17 3 5 -7 8
-22 6 -69 -6 -110 -19 -142 -47 l-35 -30 30 7 c17 3 34 13 38 21 4 8 17 14 27
14 16 0 20 -7 20 -30 0 -32 17 -39 38 -18 10 10 15 10 23 -2 9 -13 10 -12 5 2
-5 18 29 46 42 34 3 -3 0 -6 -6 -6 -17 0 -15 -27 2 -33 10 -4 13 -1 10 8 -7
17 26 36 52 30 23 -6 64 22 48 33 -5 4 -11 18 -12 32 -1 17 2 20 7 11 7 -11
13 -10 35 4 15 10 25 18 24 19 -2 1 -11 8 -20 15 -15 11 -18 11 -18 -1z m-170
-88 c0 -5 -9 -10 -21 -10 -11 0 -17 5 -14 10 3 6 13 10 21 10 8 0 14 -4 14
-10z"/>
<path d="M4130 6540 c0 -5 7 -7 15 -4 8 4 15 8 15 10 0 2 -7 4 -15 4 -8 0 -15
-4 -15 -10z"/>
<path d="M4365 6540 c-3 -5 -1 -10 4 -10 6 0 11 5 11 10 0 6 -2 10 -4 10 -3 0
-8 -4 -11 -10z"/>
<path d="M6435 6000 c3 -5 8 -10 11 -10 2 0 4 5 4 10 0 6 -5 10 -11 10 -5 0
-7 -4 -4 -10z"/>
<path d="M6622 5564 c-23 -16 -31 -54 -11 -54 6 0 9 -9 6 -20 -3 -11 0 -18 6
-17 15 3 28 -66 15 -74 -8 -5 -3 -25 15 -61 35 -73 42 -118 19 -118 -10 0 -27
7 -38 15 -15 12 -16 16 -5 24 25 16 -28 128 -72 149 -28 14 -39 39 -12 28 13
-5 12 -1 -2 19 -10 13 -26 25 -35 25 -11 0 -18 8 -18 20 0 15 -7 20 -25 20
-14 0 -25 -4 -25 -10 0 -5 -13 -10 -30 -10 -25 0 -30 -4 -30 -25 0 -14 6 -25
13 -25 6 0 30 -14 51 -30 22 -17 46 -30 54 -30 22 0 99 -61 112 -89 14 -30 -1
-51 -24 -32 -7 6 -18 11 -22 10 -15 -4 -62 19 -68 33 -3 7 -3 3 0 -9 5 -23 -9
-32 -21 -13 -3 6 -17 10 -31 10 -19 0 -24 5 -24 26 0 24 -3 26 -29 21 -22 -5
-34 0 -51 19 -13 13 -34 24 -47 24 -13 0 -23 4 -23 9 0 14 -80 25 -185 24 -92
-1 -105 -3 -158 -32 -33 -17 -70 -33 -83 -35 -13 -3 -36 -14 -50 -25 -15 -12
-32 -21 -39 -21 -7 0 -18 -6 -24 -14 -10 -12 -5 -15 28 -21 33 -5 42 -12 52
-38 19 -51 19 -55 -12 -89 -16 -18 -27 -38 -24 -45 2 -7 -1 -15 -7 -19 -7 -5
-9 2 -6 20 3 14 1 26 -3 26 -5 0 -9 -4 -9 -10 0 -5 -5 -10 -12 -10 -6 0 -20
-8 -31 -17 -15 -13 -21 -15 -24 -5 -6 17 -23 15 -23 -3 0 -10 -11 -15 -35 -15
-24 0 -35 -5 -35 -14 0 -20 -18 -30 -33 -17 -9 7 -16 5 -25 -10 -7 -10 -23
-19 -36 -19 -14 0 -31 -6 -38 -14 -32 -31 -118 -31 -118 0 0 11 -6 13 -22 8
-21 -6 -22 -6 -8 12 8 10 18 21 22 25 4 3 -8 5 -27 5 -19 0 -35 -3 -35 -6 0
-4 -30 -39 -67 -78 -38 -39 -86 -90 -108 -113 -50 -53 -145 -98 -290 -137 -63
-17 -109 -35 -107 -41 1 -6 -5 -11 -13 -11 -11 0 -15 -12 -15 -44 0 -40 2 -44
28 -49 15 -3 29 -1 30 4 2 5 8 9 13 9 5 0 39 14 75 31 l67 32 115 -12 c64 -7
125 -17 138 -21 12 -5 62 -13 111 -19 50 -5 148 -24 219 -41 101 -24 150 -31
232 -31 130 0 262 19 262 38 0 8 -8 17 -17 20 -10 4 -21 11 -25 17 -5 7 -8 4
-8 -6 0 -18 -25 -25 -34 -9 -3 4 -1 22 3 39 5 17 7 33 4 36 -11 11 -32 -15
-26 -31 5 -13 0 -15 -28 -11 -19 3 -41 8 -50 12 -10 4 -23 1 -32 -9 -14 -13
-20 -14 -37 -3 -15 10 -24 10 -38 2 -14 -9 -23 -8 -40 6 -16 13 -18 20 -10 24
7 3 1 4 -14 1 -15 -3 -30 -1 -33 5 -3 5 -15 10 -26 10 -10 0 -28 9 -39 20
l-20 20 0 -22 0 -22 -16 22 c-8 12 -20 20 -25 17 -5 -4 -9 0 -9 8 0 8 -10 17
-22 21 -35 9 -38 8 -38 -13 0 -31 -19 -35 -32 -7 -6 14 -17 26 -24 26 -26 0
-24 19 3 32 32 15 47 63 17 51 -12 -4 -15 -3 -10 6 5 7 18 10 29 7 12 -3 27 0
35 7 11 9 17 8 26 -3 12 -16 56 -15 56 1 0 5 -4 9 -10 9 -5 0 -10 5 -10 11 0
6 7 9 15 6 8 -4 17 -2 20 3 3 5 12 7 19 4 7 -3 21 2 30 11 20 20 39 10 31 -16
-4 -10 -2 -19 4 -19 21 0 41 13 41 27 0 12 3 13 14 4 14 -11 46 -5 57 12 4 5
21 5 42 -1 31 -9 35 -8 30 6 -5 14 -2 13 16 -3 18 -15 24 -17 30 -6 5 8 13 11
19 7 6 -3 12 -1 14 5 2 5 31 11 66 12 47 2 65 7 75 21 9 12 20 17 31 13 9 -4
16 -2 16 3 0 5 6 7 14 4 8 -3 22 9 36 30 15 25 29 36 46 36 13 0 24 3 24 8 0
4 27 7 59 7 33 0 54 -3 49 -6 -6 -4 3 -14 21 -23 23 -13 36 -14 51 -6 11 6 31
8 45 4 18 -4 27 -2 31 10 3 9 12 16 19 16 17 0 40 -29 30 -38 -4 -4 -10 -1
-12 6 -5 14 -33 16 -33 2 0 -5 9 -15 20 -22 25 -16 26 -53 1 -74 -19 -17 -19
-17 0 -51 21 -38 23 -43 11 -43 -5 0 -14 12 -21 26 -9 21 -14 24 -26 14 -15
-12 -11 -35 5 -25 4 3 10 -2 14 -10 3 -8 0 -17 -5 -21 -6 -3 -9 -15 -6 -25 3
-11 1 -19 -4 -19 -5 0 -9 5 -9 10 0 6 -7 10 -15 10 -8 0 -15 5 -15 11 0 5 -4
8 -10 4 -5 -3 -7 -13 -4 -23 4 -10 3 -13 -3 -6 -12 16 -42 24 -48 13 -4 -5 1
-12 9 -15 20 -8 21 -34 1 -34 -8 0 -15 4 -15 10 0 10 -34 8 -84 -5 -23 -6 -32
-4 -43 10 -8 12 -13 14 -13 6 0 -8 -6 -11 -16 -7 -14 5 -15 4 -4 -9 7 -8 8
-15 2 -15 -5 0 -13 -7 -16 -16 -5 -13 -4 -14 7 -6 16 14 27 6 27 -20 0 -11 4
-17 9 -14 5 4 7 -2 5 -11 -8 -35 11 -48 53 -36 21 6 57 14 81 18 23 4 42 11
42 16 0 5 7 9 15 9 17 0 30 9 77 53 16 15 31 27 34 27 2 0 36 33 76 73 47 46
78 87 87 112 15 43 54 125 91 193 20 36 26 40 31 25 4 -10 5 -28 2 -40 -7 -32
12 -28 25 5 38 100 46 164 28 247 -20 96 -52 165 -76 165 -21 0 -29 10 -35 42
-8 38 -37 47 -73 22z m-92 -115 c0 -5 -7 -9 -15 -9 -15 0 -20 12 -9 23 8 8 24
-1 24 -14z m-227 -76 c-7 -2 -19 -2 -25 0 -7 3 -2 5 12 5 14 0 19 -2 13 -5z
m-214 -106 c17 -17 21 -4 11 38 -11 49 -2 60 34 41 18 -9 23 -16 14 -19 -10
-3 -10 -7 -1 -17 13 -14 12 -15 28 35 2 8 14 15 27 15 17 0 19 -3 10 -12 -32
-32 1 -95 35 -67 11 10 11 14 -2 29 -14 16 -14 18 0 24 25 9 36 7 33 -7 -2 -6
7 -26 20 -44 12 -17 22 -36 22 -43 0 -6 5 -8 10 -5 16 10 11 -4 -9 -27 -14
-15 -28 -19 -51 -16 -23 3 -30 1 -26 -9 3 -7 2 -13 -3 -13 -5 0 -23 -3 -40 -6
-18 -4 -31 -3 -30 2 4 23 -3 26 -21 9 -23 -20 -50 -14 -57 15 -3 11 -10 20
-15 20 -5 0 -6 -4 -3 -10 3 -6 -1 -7 -10 -4 -11 4 -20 -4 -30 -31 -18 -42 -40
-42 -40 0 0 16 -6 30 -12 32 -12 4 -17 -8 -14 -34 1 -7 -3 -13 -9 -13 -5 0
-10 6 -10 14 0 7 -9 16 -20 19 -15 4 -20 0 -20 -14 0 -21 -29 -26 -34 -6 -4
13 -22 78 -31 115 -5 16 -2 22 9 22 10 0 16 -9 16 -22 0 -13 9 -34 19 -47 l18
-24 7 53 c8 58 13 58 37 -3 9 -23 22 -43 29 -45 9 -3 9 1 2 14 -14 27 -19 83
-7 84 6 1 13 -13 16 -30 10 -49 22 -49 16 0 -2 25 -3 39 0 33 9 -24 23 -13 23
16 0 48 24 43 37 -7 6 -24 16 -49 22 -55z m-179 29 c0 -8 -7 -16 -15 -20 -12
-4 -13 -2 -2 14 14 24 17 25 17 6z m430 -21 c-7 -9 -15 -13 -17 -11 -7 7 7 26
19 26 6 0 6 -6 -2 -15z m380 -125 c0 -5 -4 -10 -10 -10 -5 0 -10 5 -10 10 0 6
5 10 10 10 6 0 10 -4 10 -10z m-845 -20 c11 -17 -5 -32 -21 -19 -8 6 -14 15
-14 20 0 12 27 11 35 -1z m237 -5 c0 -5 -5 -11 -10 -13 -5 -1 -9 4 -9 13 0 9
4 14 9 13 5 -2 10 -8 10 -13z m-137 -35 c-3 -5 -12 -7 -20 -3 -21 7 -19 13 6
13 11 0 18 -4 14 -10z m-718 -132 c-3 -8 -6 -5 -6 6 -1 11 2 17 5 13 3 -3 4
-12 1 -19z m1229 -33 c1 -31 -3 -45 -12 -45 -9 0 -13 9 -10 28 3 23 15 62 20
62 0 0 1 -20 2 -45z m-1186 -15 c0 -5 -5 -10 -11 -10 -6 0 -9 -6 -6 -13 9 -24
-8 -41 -29 -28 -17 9 -17 11 6 12 17 1 19 3 8 6 -14 4 -15 8 -5 24 12 20 37
26 37 9z m-40 -70 c0 -20 -55 -27 -63 -7 -3 8 7 13 29 14 19 1 34 -2 34 -7z
m9 -74 c8 -10 8 -16 -3 -25 -11 -9 -13 -7 -13 14 0 29 1 30 16 11z m-39 -16
c0 -5 -9 -10 -19 -10 -11 0 -23 -4 -26 -10 -11 -18 -43 -31 -50 -20 -3 5 11
18 32 29 44 22 63 25 63 11z m1035 -50 c3 -5 -3 -10 -15 -10 -12 0 -18 5 -15
10 3 6 10 10 15 10 5 0 12 -4 15 -10z m-965 -32 c0 -5 -4 -8 -10 -8 -5 0 -10
10 -10 23 0 18 2 19 10 7 5 -8 10 -18 10 -22z m924 -7 c9 -16 12 -31 9 -35
-10 -10 -35 -7 -28 4 3 5 -3 18 -15 30 -25 25 -25 30 0 30 11 0 26 -12 34 -29z
m-777 -3 c-3 -8 -6 -5 -6 6 -1 11 2 17 5 13 3 -3 4 -12 1 -19z m-103 -7 c17
-19 17 -19 -3 -14 -12 3 -21 12 -21 19 0 18 4 18 24 -5z m926 -2 c0 -5 -4 -9
-10 -9 -5 0 -10 7 -10 16 0 8 5 12 10 9 6 -3 10 -10 10 -16z m-680 -23 c0 -3
-4 -8 -10 -11 -5 -3 -10 -1 -10 4 0 6 5 11 10 11 6 0 10 -2 10 -4z m240 -45
c0 -6 -4 -13 -10 -16 -5 -3 -10 1 -10 9 0 9 5 16 10 16 6 0 10 -4 10 -9z"/>
<path d="M6182 5261 c2 -7 7 -12 11 -12 12 1 9 15 -3 20 -7 2 -11 -2 -8 -8z"/>
<path d="M6180 5210 c0 -5 5 -10 11 -10 5 0 7 5 4 10 -3 6 -8 10 -11 10 -2 0
-4 -4 -4 -10z"/>
<path d="M5844 5476 c-3 -8 -19 -18 -35 -21 -20 -5 -29 -13 -29 -26 0 -10 4
-19 10 -19 5 0 7 -7 3 -16 -5 -13 0 -14 33 -8 54 9 74 21 74 44 0 27 -16 25
-23 -2 -7 -26 -16 -20 -23 16 -2 14 0 26 6 26 5 0 10 5 10 10 0 15 -20 12 -26
-4z"/>
<path d="M6570 5430 c0 -5 5 -10 10 -10 6 0 10 5 10 10 0 6 -4 10 -10 10 -5 0
-10 -4 -10 -10z"/>
<path d="M6600 5420 c0 -5 5 -10 11 -10 5 0 7 5 4 10 -3 6 -8 10 -11 10 -2 0
-4 -4 -4 -10z"/>
<path d="M5545 5250 c-16 -18 -16 -20 -2 -20 10 0 17 5 17 10 0 6 9 10 21 10
11 0 17 5 14 10 -10 16 -30 12 -50 -10z"/>
<path d="M5425 5179 c-28 -22 -58 -47 -67 -54 -22 -18 -24 -39 -3 -32 8 4 17
2 21 -4 9 -15 36 11 30 28 -4 11 0 13 14 8 13 -4 20 -2 20 8 0 7 11 20 25 27
14 7 25 19 25 27 0 7 5 13 11 13 5 0 7 5 4 10 -11 18 -29 11 -80 -31z"/>
<path d="M5704 5155 c0 -36 10 -46 19 -21 7 16 -2 56 -12 56 -4 0 -7 -16 -7
-35z"/>
<path d="M5429 5100 c-1 -8 0 -21 1 -29 1 -8 -4 -18 -12 -22 -7 -5 -8 -9 -2
-9 6 0 18 8 27 18 15 16 15 21 2 38 -11 15 -15 16 -16 4z"/>
<path d="M5300 5079 c-7 -11 -10 -23 -7 -25 6 -6 37 25 37 37 0 17 -19 9 -30
-12z"/>
<path d="M4623 4928 c-35 -44 -53 -208 -31 -272 16 -48 45 -65 33 -20 -19 70
-20 105 -4 199 9 55 16 101 14 103 -1 1 -7 -3 -12 -10z"/>
<path d="M6583 4781 c-13 -11 -23 -25 -23 -31 0 -16 27 5 41 32 12 22 10 22
-18 -1z"/>
<path d="M6063 4705 c-10 -30 -10 -30 -22 -7 -6 12 -19 22 -28 22 -12 0 -13
-3 -4 -14 6 -7 8 -21 5 -31 -6 -14 -1 -16 27 -13 27 2 34 0 33 -14 -1 -10 2
-16 6 -13 15 9 17 42 5 71 l-12 29 -10 -30z"/>
<path d="M5913 4681 c1 -11 12 -17 34 -18 43 -2 42 9 -1 23 -29 9 -34 8 -33
-5z"/>
<path d="M6492 4685 c-7 -8 -9 -15 -4 -15 5 0 15 7 22 15 16 19 -1 19 -18 0z"/>
<path d="M6445 4641 c-4 -13 -19 -21 -48 -25 -24 -4 -57 -15 -75 -26 -18 -11
-39 -20 -47 -20 -8 0 -15 -4 -15 -9 0 -5 -26 -15 -57 -22 -32 -7 -62 -15 -68
-19 -11 -8 -56 -17 -135 -26 -30 -3 -57 -8 -58 -9 -2 -2 -1 -13 3 -24 5 -16
15 -21 44 -21 20 0 42 -5 49 -12 9 -9 15 -8 25 7 10 13 22 16 42 12 16 -3 39
-1 50 3 12 4 37 9 56 11 19 2 42 11 52 21 10 10 26 18 36 18 16 0 61 35 123
93 10 9 24 17 31 17 23 0 38 22 26 37 -16 18 -27 16 -34 -6z"/>
<path d="M5923 4629 c-2 -18 22 -33 37 -24 13 8 1 32 -19 38 -11 3 -17 -2 -18
-14z"/>
<path d="M6005 4630 c-3 -6 1 -13 10 -16 19 -8 30 0 20 15 -8 14 -22 14 -30 1z"/>
<path d="M6140 4590 c0 -5 5 -10 10 -10 6 0 10 5 10 10 0 6 -4 10 -10 10 -5 0
-10 -4 -10 -10z"/>
<path d="M6035 4580 c3 -5 10 -10 16 -10 5 0 9 5 9 10 0 6 -7 10 -16 10 -8 0
-12 -4 -9 -10z"/>
<path d="M5985 4570 c-3 -5 -1 -10 4 -10 6 0 11 5 11 10 0 6 -2 10 -4 10 -3 0
-8 -4 -11 -10z"/>
<path d="M2870 4463 c0 -10 4 -14 8 -8 4 6 11 13 16 18 5 4 2 7 -7 7 -10 0
-17 -8 -17 -17z"/>
<path d="M5875 4473 c11 -3 25 -9 31 -14 8 -6 14 -4 18 6 4 12 -2 15 -32 14
-21 -1 -29 -3 -17 -6z"/>
<path d="M2066 5633 c-6 -14 -5 -15 5 -6 7 7 10 15 7 18 -3 3 -9 -2 -12 -12z"/>
<path d="M2100 5590 c-9 -6 -10 -10 -3 -10 6 0 15 5 18 10 8 12 4 12 -15 0z"/>
<path d="M3200 3720 c0 -5 5 -10 10 -10 6 0 10 5 10 10 0 6 -4 10 -10 10 -5 0
-10 -4 -10 -10z"/>
<path d="M3395 3590 c3 -5 12 -7 20 -3 21 7 19 13 -6 13 -11 0 -18 -4 -14 -10z"/>
<path d="M3440 3581 c0 -13 29 -35 37 -28 7 8 -15 37 -28 37 -5 0 -9 -4 -9 -9z"/>
<path d="M3140 3290 c0 -5 5 -10 11 -10 5 0 7 5 4 10 -3 6 -8 10 -11 10 -2 0
-4 -4 -4 -10z"/>
<path d="M4960 1974 c0 -8 5 -12 10 -9 6 4 8 11 5 16 -9 14 -15 11 -15 -7z"/>
<path d="M4865 1661 c-3 -5 -1 -12 5 -16 5 -3 10 1 10 9 0 18 -6 21 -15 7z"/>
<path d="M8770 970 c0 -24 15 -27 24 -4 9 22 8 24 -9 24 -8 0 -15 -9 -15 -20z"/>
<path d="M8940 1010 c0 -26 3 -30 29 -30 33 0 54 20 45 44 -4 10 -18 16 -40
16 -31 0 -34 -3 -34 -30z"/>
<path d="M9400 1032 c-49 -40 -15 -143 43 -128 50 12 59 100 14 131 -27 19
-30 19 -57 -3z"/>
<path d="M9850 1042 c-25 -7 -40 -34 -40 -69 0 -35 29 -73 55 -73 26 0 55 38
55 73 0 49 -32 81 -70 69z"/>
<path d="M10271 991 c-15 -36 -12 -44 17 -39 17 3 18 6 7 37 l-11 34 -13 -32z"/>
<path d="M10462 1018 c4 -28 48 -37 67 -14 18 22 5 36 -35 36 -31 0 -35 -3
-32 -22z"/>
<path d="M10462 933 c3 -25 7 -28 37 -26 64 3 64 53 -1 53 -37 0 -39 -2 -36
-27z"/>
<path d="M9918 555 c-16 -36 3 -75 37 -75 32 0 49 38 35 75 -7 18 -17 25 -35
25 -17 0 -29 -8 -37 -25z"/>
<path d="M8744 566 c-3 -8 -4 -29 -2 -48 2 -28 7 -34 30 -36 36 -4 57 35 40
73 -13 28 -59 35 -68 11z"/>
<path d="M9125 556 c-13 -19 -14 -28 -4 -50 21 -46 79 -29 79 24 0 51 -48 68
-75 26z"/>
<path d="M9442 568 c-7 -7 -12 -24 -12 -38 0 -32 17 -50 47 -50 38 0 56 55 27
84 -18 19 -45 21 -62 4z"/>
<path d="M9750 521 c-36 -10 -32 -36 5 -36 23 0 31 5 33 23 4 23 1 24 -38 13z"/>
<path d="M10497 573 c-18 -17 -5 -33 28 -33 23 0 35 5 35 14 0 21 -47 35 -63
19z"/>
<path d="M1535 10070 c-3 -6 1 -7 9 -4 18 7 21 14 7 14 -6 0 -13 -4 -16 -10z"/>
<path d="M1444 9998 l-19 -21 28 18 c28 18 33 25 19 25 -5 0 -17 -10 -28 -22z"/>
<path d="M1405 9970 c-3 -5 -1 -10 4 -10 6 0 11 5 11 10 0 6 -2 10 -4 10 -3 0
-8 -4 -11 -10z"/>
<path d="M1268 9858 c-37 -29 -49 -60 -28 -73 6 -3 10 0 10 9 0 8 3 16 8 18
10 4 55 69 50 73 -1 2 -20 -10 -40 -27z"/>
<path d="M7432 7555 c0 -16 2 -22 5 -12 2 9 2 23 0 30 -3 6 -5 -1 -5 -18z"/>
<path d="M7442 7490 c0 -19 3 -55 7 -80 11 -61 12 -4 1 65 -6 41 -7 44 -8 15z"/>
<path d="M7483 7170 c0 -25 2 -35 4 -22 2 12 2 32 0 45 -2 12 -4 2 -4 -23z"/>
<path d="M7130 6775 c0 -12 40 -84 50 -90 16 -10 12 22 -5 39 -8 8 -15 17 -15
21 0 4 -7 13 -15 21 -8 9 -15 13 -15 9z"/>
<path d="M254 6338 c-18 -6 -36 -20 -42 -32 -5 -11 -20 -43 -32 -71 -12 -27
-28 -54 -36 -58 -24 -14 -9 -167 17 -167 4 0 10 -19 14 -41 4 -23 15 -56 25
-73 10 -17 22 -48 25 -68 4 -21 11 -36 15 -33 8 5 21 -75 14 -87 -3 -4 -21 2
-41 13 -29 16 -38 18 -44 7 -5 -7 -9 -9 -9 -4 0 4 -11 1 -25 -8 -35 -23 -48
-11 -41 33 3 20 1 43 -4 51 -7 11 -11 8 -21 -15 l-11 -30 -14 33 c-8 17 -21
32 -29 32 -13 0 -15 -332 -15 -2910 l0 -2910 188 0 189 0 13 25 c7 14 17 25
22 25 4 0 8 7 8 15 0 8 -5 15 -11 15 -16 0 -3 140 18 192 8 21 13 42 9 45 -3
3 -1 12 5 19 6 7 13 39 16 71 3 32 11 69 18 83 7 14 10 30 8 37 -2 6 1 14 6
18 6 3 11 18 11 33 0 15 9 35 20 45 11 9 20 29 20 44 0 16 9 39 20 53 14 18
20 41 20 78 0 41 6 61 25 86 14 18 25 37 25 42 0 15 50 84 60 84 18 0 10 -31
-29 -108 -21 -42 -51 -117 -66 -167 -16 -49 -33 -96 -39 -104 -12 -15 -25 -62
-56 -196 -11 -49 -25 -106 -30 -125 -13 -50 -29 -153 -36 -237 l-5 -73 235 0
236 0 0 30 c0 16 5 41 12 55 8 19 8 31 0 50 -7 15 -8 25 -2 25 6 0 10 9 10 20
0 11 7 37 15 57 8 21 16 61 18 89 2 28 16 77 30 108 15 32 24 62 21 67 -3 5 2
16 10 25 9 8 16 23 16 32 0 14 2 15 10 2 7 -11 11 -9 19 14 6 15 18 35 27 43
12 13 13 18 3 24 -10 6 -4 17 21 43 34 35 65 46 72 26 5 -13 98 20 98 36 0 7
9 16 20 19 11 4 27 19 35 35 8 16 27 35 42 42 24 12 27 19 27 66 1 29 0 48 -2
42 -4 -12 -42 -13 -42 -1 0 5 11 12 25 15 14 4 25 13 25 21 0 8 7 15 14 15 11
0 15 -11 13 -40 -1 -46 4 -54 32 -45 28 8 27 33 -1 44 -21 8 -21 10 -5 16 9 4
24 2 32 -5 11 -9 18 -10 28 -1 8 6 17 8 20 4 4 -3 9 2 13 11 8 22 48 20 65 -3
8 -10 30 -21 49 -24 19 -3 29 -3 23 0 -16 6 -17 39 -1 49 7 5 8 3 3 -7 -7 -12
-6 -12 7 -1 12 10 20 8 41 -12 16 -15 34 -22 46 -19 14 4 20 -1 23 -18 2 -12
10 -25 18 -29 8 -4 25 -12 36 -18 25 -13 80 -1 77 17 -4 14 4 14 20 1 54 -46
93 -70 104 -66 8 3 13 -2 13 -13 0 -12 10 -21 25 -25 14 -4 23 -11 20 -15 -6
-11 64 -83 75 -76 4 3 16 -15 27 -40 10 -25 21 -45 26 -45 4 0 7 -11 7 -23 0
-13 9 -34 20 -47 11 -13 20 -29 20 -36 0 -7 9 -15 19 -19 27 -8 101 -91 101
-112 0 -10 11 -35 25 -55 14 -20 25 -42 25 -48 0 -6 4 -9 8 -6 11 6 65 -48 56
-56 -3 -4 3 -11 14 -17 11 -6 22 -25 25 -46 3 -20 18 -50 32 -67 18 -22 25
-38 21 -54 -6 -24 9 -43 17 -22 3 7 6 3 6 -9 1 -21 6 -23 60 -23 78 0 86 18
38 93 -19 29 -52 92 -74 139 -23 47 -63 119 -89 160 -27 40 -52 80 -55 89 -9
20 -109 167 -174 254 -29 39 -74 106 -100 150 -57 95 -73 118 -143 208 -51 65
-59 70 -195 137 -196 95 -284 124 -361 117 -67 -5 -495 -107 -591 -139 -97
-33 -203 -90 -293 -158 -51 -38 -169 -202 -309 -429 -18 -30 -33 -63 -33 -74
0 -10 -7 -33 -15 -50 -8 -18 -22 -61 -30 -97 -9 -36 -25 -101 -36 -145 -11
-44 -20 -88 -20 -99 0 -17 -1 -17 -20 -1 -24 23 -24 37 1 115 11 34 20 76 20
93 0 16 8 48 19 71 10 23 23 56 30 73 29 84 36 103 68 170 18 39 37 74 42 78
5 3 12 19 16 35 4 16 17 40 31 52 13 13 24 26 24 30 0 4 18 26 40 50 22 24 40
48 40 53 0 15 108 114 181 166 64 46 199 109 274 128 22 5 114 28 205 51 91
22 194 49 230 60 36 10 79 23 95 28 21 6 29 15 28 28 -1 10 4 22 10 26 34 21
-79 4 -193 -31 -30 -9 -64 -17 -75 -18 -31 -3 -165 -33 -223 -49 -34 -10 -50
-19 -45 -27 5 -8 8 -8 11 1 2 7 8 12 13 12 5 0 4 -9 -3 -19 -8 -13 -19 -18
-36 -15 -16 3 -21 1 -16 -7 5 -9 1 -10 -15 -6 -14 3 -24 -1 -31 -13 -5 -10
-22 -20 -37 -23 -16 -3 -46 -12 -68 -20 -62 -23 -95 -29 -95 -17 0 5 6 10 14
10 7 0 19 7 26 15 7 8 24 15 39 16 14 0 21 3 14 5 -16 7 -5 34 13 34 8 0 14 5
14 11 0 14 36 45 83 70 21 11 40 26 44 34 3 8 13 15 23 15 11 0 29 22 50 63
18 34 36 64 40 67 4 3 10 21 11 40 3 29 1 35 -16 35 -13 0 -21 8 -23 23 -3 18
11 38 57 82 34 32 69 60 79 62 9 2 23 18 31 36 11 24 19 31 33 26 18 -5 19 -3
22 48 1 10 5 17 11 15 5 -1 9 -6 7 -12 -1 -5 5 -1 13 10 9 11 18 30 22 43 3
12 11 22 18 22 6 0 20 9 30 20 10 11 14 20 9 20 -5 0 3 11 19 24 20 17 27 32
27 59 0 25 5 37 18 40 16 4 16 5 0 6 -23 1 -25 51 -3 51 17 0 38 35 32 53 -4
12 40 57 56 57 5 0 6 9 2 20 -4 13 1 27 16 42 12 13 19 18 16 13 -3 -6 -1 -17
4 -25 7 -11 9 4 7 47 -2 43 1 64 10 68 6 2 12 14 12 25 0 12 11 32 25 46 14
14 25 29 25 35 0 10 30 60 41 69 3 3 21 28 38 57 17 28 38 54 46 57 8 3 15 14
15 25 0 12 11 28 25 37 13 9 27 24 30 35 4 10 15 19 26 19 10 0 19 3 19 8 0 4
18 18 40 32 22 14 40 30 40 37 0 16 -42 17 -90 3 -43 -12 -133 -13 -370 -2
-179 8 -200 12 -248 47 -34 25 -118 115 -167 180 -20 28 -40 52 -44 55 -3 3
-12 16 -19 30 -21 41 -38 69 -53 87 -8 10 -23 34 -32 53 -9 19 -27 51 -38 70
-17 28 -19 40 -11 67 6 19 6 33 1 33 -5 0 -9 -9 -9 -20 0 -39 -19 -20 -26 26
-4 30 -9 41 -15 33 -6 -11 -9 -10 -15 4 -3 9 -4 24 0 32 3 8 1 15 -5 15 -20 0
-41 31 -94 138 -44 90 -57 121 -70 172 -4 16 -46 90 -55 95 -5 3 -10 14 -10
24 0 10 -16 50 -35 87 -19 38 -35 75 -35 82 0 6 -4 12 -9 12 -5 0 -12 19 -15
43 -9 61 -63 214 -68 191 -3 -19 -42 75 -73 179 -9 31 -21 57 -26 57 -5 0 -9
13 -9 30 0 16 -9 58 -20 92 -54 174 -65 239 -65 388 0 145 0 145 34 214 22 46
30 71 23 74 -22 7 -12 22 16 22 15 0 42 10 61 23 19 12 42 27 50 32 52 33 121
105 121 127 0 10 -6 22 -12 28 -76 62 -95 78 -112 96 -12 11 -29 25 -38 30
-16 8 -16 12 -1 42 8 17 19 32 24 32 5 0 12 18 15 40 4 22 10 40 15 40 20 0 7
35 -23 66 -90 90 -96 99 -102 146 -9 59 -26 67 -92 46z m1156 -5308 c0 -5 -7
-10 -15 -10 -8 0 -15 5 -15 10 0 6 7 10 15 10 8 0 15 -4 15 -10z m-90 -149 c0
-5 -7 -14 -16 -22 -13 -10 -17 -10 -25 2 -14 23 -11 29 16 29 14 0 25 -4 25
-9z m-784 -125 c-20 -30 -36 -59 -36 -64 0 -6 -18 -32 -40 -58 -22 -27 -40
-56 -40 -65 0 -9 -7 -22 -16 -30 -12 -10 -14 -24 -9 -72 5 -44 4 -58 -4 -52
-7 4 -19 1 -28 -7 -18 -14 -17 -7 7 77 7 22 14 56 17 75 3 21 17 45 34 61 16
14 29 30 29 36 0 11 59 113 80 138 7 8 16 12 21 9 5 -3 9 3 10 13 0 10 3 13 5
6 3 -6 -11 -36 -30 -67z m764 53 c0 -5 -4 -9 -10 -9 -5 0 -10 7 -10 16 0 8 5
12 10 9 6 -3 10 -10 10 -16z m-84 -16 c18 -24 17 -43 0 -43 -8 0 -16 -5 -18
-12 -6 -18 -28 0 -28 23 0 11 7 22 16 26 13 5 13 7 2 14 -11 7 -11 9 1 9 8 0
20 -8 27 -17z m1228 -259 c3 -8 2 -12 -4 -9 -6 3 -10 10 -10 16 0 14 7 11 14
-7z m-2099 -271 c-4 -10 -8 -27 -9 -38 -1 -13 -9 -21 -25 -23 -19 -3 -22 0
-17 13 3 9 9 29 12 43 3 15 11 40 17 57 l11 30 9 -32 c5 -18 6 -40 2 -50z
m-118 -175 c-3 -8 -6 -5 -6 6 -1 11 2 17 5 13 3 -3 4 -12 1 -19z"/>
<path d="M1450 6012 c0 -5 9 -17 21 -28 25 -22 59 -86 59 -109 0 -9 4 -14 9
-11 15 10 -6 77 -36 114 -29 36 -53 51 -53 34z"/>
<path d="M1560 5753 c0 -20 93 -133 110 -133 4 0 -6 15 -23 33 -16 17 -43 52
-59 76 -21 34 -28 40 -28 24z"/>
<path d="M7893 5310 c0 -30 2 -43 4 -27 2 15 2 39 0 55 -2 15 -4 2 -4 -28z"/>
<path d="M7881 5204 c0 -11 3 -14 6 -6 3 7 2 16 -1 19 -3 4 -6 -2 -5 -13z"/>
<path d="M389 4990 c-1 -19 -2 -48 -3 -63 -1 -16 1 -30 5 -33 4 -2 10 -28 14
-57 4 -28 13 -65 21 -81 7 -16 11 -34 7 -40 -4 -6 1 -5 10 3 15 12 17 11 18
-10 0 -22 1 -23 8 -4 5 12 4 23 -2 26 -5 4 -7 19 -3 34 4 16 3 24 -3 21 -5 -4
-12 -2 -16 4 -3 5 -1 10 5 10 7 0 8 6 0 19 -5 11 -15 43 -21 73 -6 29 -16 58
-21 65 -5 7 -8 16 -5 20 2 4 1 17 -4 28 -6 16 -8 13 -10 -15z"/>
<path d="M7792 4816 c-7 -16 -8 -26 -1 -26 12 0 22 25 17 41 -2 6 -9 0 -16
-15z"/>
<path d="M7750 4695 c-7 -14 -10 -28 -7 -31 4 -4 11 6 17 21 14 36 7 42 -10
10z"/>
<path d="M431 4664 c0 -11 3 -14 6 -6 3 7 2 16 -1 19 -3 4 -6 -2 -5 -13z"/>
<path d="M7705 4595 c-5 -11 -10 -24 -13 -30 -3 -5 3 -3 13 7 9 9 15 22 12 30
-3 9 -7 7 -12 -7z"/>
<path d="M7663 4518 c-25 -32 -26 -40 -4 -26 12 7 21 18 21 25 0 16 -5 16 -17
1z"/>
<path d="M7610 4435 c-10 -12 -10 -15 4 -15 9 0 16 7 16 15 0 8 -2 15 -4 15
-2 0 -9 -7 -16 -15z"/>
<path d="M7575 4390 c-18 -20 -16 -38 3 -26 8 5 24 46 18 46 -2 0 -11 -9 -21
-20z"/>
<path d="M7528 4342 c-27 -28 -46 -42 -58 -42 -14 0 -8 -22 7 -27 6 -2 14 5
18 16 3 12 13 21 20 21 14 0 41 38 33 46 -2 2 -11 -4 -20 -14z"/>
<path d="M7424 4255 c-4 -8 -15 -15 -25 -15 -20 0 -26 -15 -9 -25 6 -3 10 -2
10 4 0 6 11 13 25 17 14 3 25 12 25 20 0 19 -19 18 -26 -1z"/>
<path d="M7348 4203 c-10 -2 -18 -8 -18 -13 0 -5 -9 -12 -21 -15 -11 -4 -19
-9 -17 -11 8 -7 67 20 72 33 3 7 4 12 3 12 -1 -1 -10 -3 -19 -6z"/>
<path d="M7241 4125 c-18 -8 -56 -15 -85 -16 -28 0 -71 -9 -96 -20 l-45 -20
40 7 c22 3 44 10 50 15 5 5 31 9 57 9 45 0 118 21 118 34 0 8 1 8 -39 -9z"/>
<path d="M820 3753 c0 -4 5 -15 10 -23 8 -13 10 -13 10 2 0 9 -4 20 -10 23 -5
3 -10 3 -10 -2z"/>
<path d="M930 3529 c0 -5 5 -7 10 -4 6 3 10 8 10 11 0 2 -4 4 -10 4 -5 0 -10
-5 -10 -11z"/>
<path d="M980 3514 c0 -8 5 -12 10 -9 6 3 10 10 10 16 0 5 -4 9 -10 9 -5 0
-10 -7 -10 -16z"/>
<path d="M1004 3457 c1 -16 7 -23 20 -22 11 1 22 7 24 15 3 7 0 10 -6 6 -5 -3
-12 1 -16 9 -9 23 -24 18 -22 -8z"/>
<path d="M6280 3415 c-10 -12 -10 -15 4 -15 9 0 16 7 16 15 0 8 -2 15 -4 15
-2 0 -9 -7 -16 -15z"/>
<path d="M1065 3400 c3 -5 8 -10 11 -10 2 0 4 5 4 10 0 6 -5 10 -11 10 -5 0
-7 -4 -4 -10z"/>
<path d="M6365 3361 c-3 -5 -1 -12 5 -16 5 -3 10 1 10 9 0 18 -6 21 -15 7z"/>
<path d="M5765 2720 c3 -5 11 -10 16 -10 6 0 7 5 4 10 -3 6 -11 10 -16 10 -6
0 -7 -4 -4 -10z"/>
<path d="M5795 2690 c3 -5 8 -10 11 -10 2 0 4 5 4 10 0 6 -5 10 -11 10 -5 0
-7 -4 -4 -10z"/>
<path d="M4437 1480 c9 -11 19 -17 21 -15 6 6 -18 35 -29 35 -5 0 -1 -9 8 -20z"/>
<path d="M4470 1454 c0 -13 218 -222 249 -238 17 -9 31 -20 31 -24 0 -4 11 -8
25 -8 13 -1 41 -15 62 -31 21 -16 50 -36 64 -45 31 -20 44 -33 84 -83 17 -21
42 -50 58 -64 15 -14 27 -31 27 -38 0 -7 7 -13 15 -13 8 0 15 -4 15 -10 0 -5
6 -10 13 -10 7 0 18 -9 25 -20 7 -11 17 -20 22 -20 11 0 63 -34 88 -58 25 -23
125 -88 197 -127 144 -80 235 -146 291 -214 21 -25 70 -75 108 -111 37 -36 89
-92 115 -125 62 -80 77 -95 101 -95 27 0 25 28 -3 35 -38 10 -64 64 -101 209
-20 77 -37 140 -38 141 -105 68 -110 82 -98 257 5 78 12 158 16 177 6 31 5 33
-14 26 -28 -8 -70 -16 -107 -20 -16 -1 -33 -3 -37 -4 -5 -1 -8 -7 -8 -14 0 -7
-15 -30 -34 -50 -47 -51 -87 -51 -147 1 -43 38 -191 112 -223 112 -9 0 -25 -9
-37 -21 -17 -17 -28 -19 -65 -13 -24 3 -44 10 -44 15 0 5 -7 9 -15 9 -17 0
-55 69 -55 101 0 14 -5 19 -15 16 -8 -4 -29 8 -50 29 -67 65 -175 127 -235
135 -49 7 -60 13 -100 58 -25 27 -63 61 -85 75 -22 14 -52 35 -67 46 -16 12
-28 18 -28 14z"/>
<path d="M925 1340 c3 -5 8 -10 11 -10 2 0 4 5 4 10 0 6 -5 10 -11 10 -5 0 -7
-4 -4 -10z"/>
<path d="M880 1300 c0 -5 4 -10 9 -10 6 0 13 5 16 10 3 6 -1 10 -9 10 -9 0
-16 -4 -16 -10z"/>
<path d="M4770 1136 c0 -2 6 -9 13 -15 10 -8 14 -7 14 4 0 8 -6 15 -14 15 -7
0 -13 -2 -13 -4z"/>
<path d="M6050 1108 c-13 -5 -40 -8 -60 -6 -34 3 -35 2 -43 -42 -7 -37 -4 -60
18 -125 30 -91 62 -249 71 -345 7 -77 49 -302 71 -380 9 -31 28 -68 45 -86 19
-21 26 -34 19 -39 -6 -3 -9 -11 -5 -16 3 -5 2 -9 -3 -8 -20 3 -23 -2 -9 -16
20 -21 24 -19 28 12 2 14 8 28 14 30 16 5 24 -35 14 -63 -9 -23 -8 -24 30 -24
l40 0 0 81 c0 87 -10 119 -39 119 -10 0 -25 8 -34 18 -34 38 -41 76 -43 257
-1 134 -7 210 -23 295 -12 63 -28 165 -37 225 -9 61 -19 113 -22 116 -4 4 -18
3 -32 -3z"/>
<path d="M1575 970 c-3 -5 -17 -10 -31 -10 -19 0 -24 -5 -24 -26 0 -32 30 -30
45 3 5 12 16 24 25 25 11 3 12 6 3 11 -6 4 -14 3 -18 -3z"/>
<path d="M6085 71 c-6 -11 29 -33 39 -24 7 7 -12 33 -25 33 -4 0 -10 -4 -14
-9z"/>
<path d="M2576 46 c-8 -33 -1 -46 25 -46 24 0 24 18 0 49 l-18 24 -7 -27z"/>
<path d="M2551 14 c0 -11 3 -14 6 -6 3 7 2 16 -1 19 -3 4 -6 -2 -5 -13z"/>
</g>
</svg>
